<?xml version="1.0" encoding="utf-8" standalone="no"?>
<!DOCTYPE svg PUBLIC "-//W3C//DTD SVG 1.1//EN"
  "http://www.w3.org/Graphics/SVG/1.1/DTD/svg11.dtd">
<svg xmlns:xlink="http://www.w3.org/1999/xlink" width="409.517279pt" height="253.482258pt" viewBox="0 0 409.517279 253.482258" xmlns="http://www.w3.org/2000/svg" version="1.1">
 <metadata>
  <rdf:RDF xmlns:dc="http://purl.org/dc/elements/1.1/" xmlns:cc="http://creativecommons.org/ns#" xmlns:rdf="http://www.w3.org/1999/02/22-rdf-syntax-ns#">
   <cc:Work>
    <dc:type rdf:resource="http://purl.org/dc/dcmitype/StillImage"/>
    <dc:date>2025-08-19T22:09:22.841611</dc:date>
    <dc:format>image/svg+xml</dc:format>
    <dc:creator>
     <cc:Agent>
      <dc:title>Matplotlib v3.7.2, https://matplotlib.org/</dc:title>
     </cc:Agent>
    </dc:creator>
   </cc:Work>
  </rdf:RDF>
 </metadata>
 <defs>
  <style type="text/css">*{stroke-linejoin: round; stroke-linecap: butt}</style>
 </defs>
 <g id="figure_1">
  <g id="patch_1">
   <path d="M 0 253.482258 
L 409.517279 253.482258 
L 409.517279 -0 
L 0 -0 
z
" style="fill: #ffffff"/>
  </g>
  <g id="axes_1">
   <g id="patch_2">
    <path d="M 67.517279 193.356997 
L 402.317279 193.356997 
L 402.317279 27.036997 
L 67.517279 27.036997 
z
" style="fill: #ffffff"/>
   </g>
   <g id="matplotlib.axis_1">
    <g id="xtick_1">
     <g id="line2d_1">
      <defs>
       <path id="mdf5b174f19" d="M 0 0 
L 0 10 
" style="stroke: #000000; stroke-width: 2"/>
      </defs>
      <g>
       <use xlink:href="#mdf5b174f19" x="82.735461" y="193.356997" style="stroke: #000000; stroke-width: 2"/>
      </g>
     </g>
     <g id="text_1">
      <!-- $\mathdefault{0}$ -->
      <g transform="translate(78.166414 220.693994) scale(0.2 -0.2)">
       <defs>
        <path id="CMR17-30" d="M 2688 2025 
C 2688 2416 2682 3080 2413 3591 
C 2176 4039 1798 4198 1466 4198 
C 1158 4198 768 4058 525 3597 
C 269 3118 243 2524 243 2025 
C 243 1661 250 1106 448 619 
C 723 -39 1216 -128 1466 -128 
C 1760 -128 2208 -7 2470 600 
C 2662 1042 2688 1559 2688 2025 
z
M 1466 -26 
C 1056 -26 813 325 723 812 
C 653 1188 653 1738 653 2096 
C 653 2588 653 2997 736 3387 
C 858 3929 1216 4096 1466 4096 
C 1728 4096 2067 3923 2189 3400 
C 2272 3036 2278 2607 2278 2096 
C 2278 1680 2278 1169 2202 792 
C 2067 95 1690 -26 1466 -26 
z
" transform="scale(0.015625)"/>
       </defs>
       <use xlink:href="#CMR17-30" transform="scale(0.996264)"/>
      </g>
     </g>
    </g>
    <g id="xtick_2">
     <g id="line2d_2">
      <g>
       <use xlink:href="#mdf5b174f19" x="162.939392" y="193.356997" style="stroke: #000000; stroke-width: 2"/>
      </g>
     </g>
     <g id="text_2">
      <!-- $\mathdefault{1}$ -->
      <g transform="translate(158.370345 220.693994) scale(0.2 -0.2)">
       <defs>
        <path id="CMR17-31" d="M 1702 4058 
C 1702 4192 1696 4192 1606 4192 
C 1357 3916 979 3827 621 3827 
C 602 3827 570 3827 563 3808 
C 557 3795 557 3782 557 3648 
C 755 3648 1088 3686 1344 3839 
L 1344 461 
C 1344 236 1331 160 781 160 
L 589 160 
L 589 0 
C 896 0 1216 0 1523 0 
C 1830 0 2150 0 2458 0 
L 2458 160 
L 2266 160 
C 1715 160 1702 230 1702 458 
L 1702 4058 
z
" transform="scale(0.015625)"/>
       </defs>
       <use xlink:href="#CMR17-31" transform="scale(0.996264)"/>
      </g>
     </g>
    </g>
    <g id="xtick_3">
     <g id="line2d_3">
      <g>
       <use xlink:href="#mdf5b174f19" x="243.143324" y="193.356997" style="stroke: #000000; stroke-width: 2"/>
      </g>
     </g>
     <g id="text_3">
      <!-- $\mathdefault{2}$ -->
      <g transform="translate(238.574276 220.693994) scale(0.2 -0.2)">
       <defs>
        <path id="CMR17-32" d="M 2669 989 
L 2554 989 
C 2490 536 2438 459 2413 420 
C 2381 369 1920 369 1830 369 
L 602 369 
C 832 619 1280 1072 1824 1597 
C 2214 1967 2669 2402 2669 3035 
C 2669 3790 2067 4224 1395 4224 
C 691 4224 262 3604 262 3030 
C 262 2780 448 2748 525 2748 
C 589 2748 781 2787 781 3010 
C 781 3207 614 3264 525 3264 
C 486 3264 448 3258 422 3245 
C 544 3790 915 4058 1306 4058 
C 1862 4058 2227 3617 2227 3035 
C 2227 2479 1901 2000 1536 1584 
L 262 146 
L 262 0 
L 2515 0 
L 2669 989 
z
" transform="scale(0.015625)"/>
       </defs>
       <use xlink:href="#CMR17-32" transform="scale(0.996264)"/>
      </g>
     </g>
    </g>
    <g id="xtick_4">
     <g id="line2d_4">
      <g>
       <use xlink:href="#mdf5b174f19" x="323.347255" y="193.356997" style="stroke: #000000; stroke-width: 2"/>
      </g>
     </g>
     <g id="text_4">
      <!-- $\mathdefault{3}$ -->
      <g transform="translate(318.778207 220.693994) scale(0.2 -0.2)">
       <defs>
        <path id="CMR17-33" d="M 1414 2157 
C 1984 2157 2234 1662 2234 1090 
C 2234 320 1824 25 1453 25 
C 1114 25 563 194 390 693 
C 422 680 454 680 486 680 
C 640 680 755 782 755 948 
C 755 1133 614 1216 486 1216 
C 378 1216 211 1165 211 926 
C 211 335 787 -128 1466 -128 
C 2176 -128 2720 430 2720 1085 
C 2720 1707 2208 2157 1600 2227 
C 2086 2328 2554 2756 2554 3329 
C 2554 3820 2048 4179 1472 4179 
C 890 4179 378 3829 378 3329 
C 378 3110 544 3072 627 3072 
C 762 3072 877 3155 877 3321 
C 877 3486 762 3569 627 3569 
C 602 3569 570 3569 544 3557 
C 730 3959 1235 4032 1459 4032 
C 1683 4032 2106 3925 2106 3320 
C 2106 3143 2080 2828 1862 2550 
C 1670 2304 1453 2304 1242 2284 
C 1210 2284 1062 2269 1037 2269 
C 992 2263 966 2257 966 2208 
C 966 2163 973 2157 1101 2157 
L 1414 2157 
z
" transform="scale(0.015625)"/>
       </defs>
       <use xlink:href="#CMR17-33" transform="scale(0.996264)"/>
      </g>
     </g>
    </g>
    <g id="text_5">
     <!-- \textit{b} -->
     <g transform="translate(230.096787 242.406624) scale(0.2 -0.2)">
      <defs>
       <path id="CMSSI17-62" d="M 1901 4416 
L 1427 4416 
L 480 -13 
L 966 -13 
L 1024 274 
C 1210 51 1478 -64 1760 -64 
C 2477 -64 3226 790 3226 1789 
C 3226 2232 3034 2756 2522 2756 
C 2323 2756 1920 2712 1478 2419 
L 1901 4416 
z
M 1408 2046 
C 1645 2286 1894 2368 2099 2368 
C 2432 2368 2726 2159 2726 1680 
C 2726 1006 2278 325 1600 325 
C 1210 325 1120 665 1120 697 
C 1120 728 1126 754 1133 778 
L 1408 2046 
z
" transform="scale(0.015625)"/>
      </defs>
      <use xlink:href="#CMSSI17-62" transform="scale(0.996264)"/>
     </g>
    </g>
   </g>
   <g id="matplotlib.axis_2">
    <g id="ytick_1">
     <g id="line2d_5">
      <defs>
       <path id="mbc99da76e5" d="M 0 0 
L -10 0 
" style="stroke: #000000; stroke-width: 2"/>
      </defs>
      <g>
       <use xlink:href="#mbc99da76e5" x="67.517279" y="154.686712" style="stroke: #000000; stroke-width: 2"/>
      </g>
     </g>
     <g id="text_6">
      <!-- $\mathdefault{10^{1}}$ -->
      <g transform="translate(28.91263 161.60521) scale(0.2 -0.2)">
       <use xlink:href="#CMR17-31" transform="scale(0.996264)"/>
       <use xlink:href="#CMR17-30" transform="translate(45.690477 0) scale(0.996264)"/>
       <use xlink:href="#CMR17-31" transform="translate(91.380954 36.153639) scale(0.697382)"/>
      </g>
     </g>
    </g>
    <g id="ytick_2">
     <g id="line2d_6">
      <g>
       <use xlink:href="#mbc99da76e5" x="67.517279" y="90.669499" style="stroke: #000000; stroke-width: 2"/>
      </g>
     </g>
     <g id="text_7">
      <!-- $\mathdefault{10^{2}}$ -->
      <g transform="translate(28.91263 97.587997) scale(0.2 -0.2)">
       <use xlink:href="#CMR17-31" transform="scale(0.996264)"/>
       <use xlink:href="#CMR17-30" transform="translate(45.690477 0) scale(0.996264)"/>
       <use xlink:href="#CMR17-32" transform="translate(91.380954 36.153639) scale(0.697382)"/>
      </g>
     </g>
    </g>
    <g id="ytick_3">
     <g id="line2d_7">
      <defs>
       <path id="m423761e95f" d="M 0 0 
L -5 0 
" style="stroke: #000000"/>
      </defs>
      <g>
       <use xlink:href="#m423761e95f" x="67.517279" y="188.159952" style="stroke: #000000"/>
      </g>
     </g>
    </g>
    <g id="ytick_4">
     <g id="line2d_8">
      <g>
       <use xlink:href="#m423761e95f" x="67.517279" y="180.161722" style="stroke: #000000"/>
      </g>
     </g>
    </g>
    <g id="ytick_5">
     <g id="line2d_9">
      <g>
       <use xlink:href="#m423761e95f" x="67.517279" y="173.957814" style="stroke: #000000"/>
      </g>
     </g>
    </g>
    <g id="ytick_6">
     <g id="line2d_10">
      <g>
       <use xlink:href="#m423761e95f" x="67.517279" y="168.888851" style="stroke: #000000"/>
      </g>
     </g>
    </g>
    <g id="ytick_7">
     <g id="line2d_11">
      <g>
       <use xlink:href="#m423761e95f" x="67.517279" y="164.603104" style="stroke: #000000"/>
      </g>
     </g>
    </g>
    <g id="ytick_8">
     <g id="line2d_12">
      <g>
       <use xlink:href="#m423761e95f" x="67.517279" y="160.890621" style="stroke: #000000"/>
      </g>
     </g>
    </g>
    <g id="ytick_9">
     <g id="line2d_13">
      <g>
       <use xlink:href="#m423761e95f" x="67.517279" y="157.615979" style="stroke: #000000"/>
      </g>
     </g>
    </g>
    <g id="ytick_10">
     <g id="line2d_14">
      <g>
       <use xlink:href="#m423761e95f" x="67.517279" y="135.415611" style="stroke: #000000"/>
      </g>
     </g>
    </g>
    <g id="ytick_11">
     <g id="line2d_15">
      <g>
       <use xlink:href="#m423761e95f" x="67.517279" y="124.142739" style="stroke: #000000"/>
      </g>
     </g>
    </g>
    <g id="ytick_12">
     <g id="line2d_16">
      <g>
       <use xlink:href="#m423761e95f" x="67.517279" y="116.144509" style="stroke: #000000"/>
      </g>
     </g>
    </g>
    <g id="ytick_13">
     <g id="line2d_17">
      <g>
       <use xlink:href="#m423761e95f" x="67.517279" y="109.9406" style="stroke: #000000"/>
      </g>
     </g>
    </g>
    <g id="ytick_14">
     <g id="line2d_18">
      <g>
       <use xlink:href="#m423761e95f" x="67.517279" y="104.871638" style="stroke: #000000"/>
      </g>
     </g>
    </g>
    <g id="ytick_15">
     <g id="line2d_19">
      <g>
       <use xlink:href="#m423761e95f" x="67.517279" y="100.585891" style="stroke: #000000"/>
      </g>
     </g>
    </g>
    <g id="ytick_16">
     <g id="line2d_20">
      <g>
       <use xlink:href="#m423761e95f" x="67.517279" y="96.873408" style="stroke: #000000"/>
      </g>
     </g>
    </g>
    <g id="ytick_17">
     <g id="line2d_21">
      <g>
       <use xlink:href="#m423761e95f" x="67.517279" y="93.598766" style="stroke: #000000"/>
      </g>
     </g>
    </g>
    <g id="ytick_18">
     <g id="line2d_22">
      <g>
       <use xlink:href="#m423761e95f" x="67.517279" y="71.398398" style="stroke: #000000"/>
      </g>
     </g>
    </g>
    <g id="ytick_19">
     <g id="line2d_23">
      <g>
       <use xlink:href="#m423761e95f" x="67.517279" y="60.125526" style="stroke: #000000"/>
      </g>
     </g>
    </g>
    <g id="ytick_20">
     <g id="line2d_24">
      <g>
       <use xlink:href="#m423761e95f" x="67.517279" y="52.127296" style="stroke: #000000"/>
      </g>
     </g>
    </g>
    <g id="ytick_21">
     <g id="line2d_25">
      <g>
       <use xlink:href="#m423761e95f" x="67.517279" y="45.923387" style="stroke: #000000"/>
      </g>
     </g>
    </g>
    <g id="ytick_22">
     <g id="line2d_26">
      <g>
       <use xlink:href="#m423761e95f" x="67.517279" y="40.854424" style="stroke: #000000"/>
      </g>
     </g>
    </g>
    <g id="ytick_23">
     <g id="line2d_27">
      <g>
       <use xlink:href="#m423761e95f" x="67.517279" y="36.568678" style="stroke: #000000"/>
      </g>
     </g>
    </g>
    <g id="ytick_24">
     <g id="line2d_28">
      <g>
       <use xlink:href="#m423761e95f" x="67.517279" y="32.856195" style="stroke: #000000"/>
      </g>
     </g>
    </g>
    <g id="ytick_25">
     <g id="line2d_29">
      <g>
       <use xlink:href="#m423761e95f" x="67.517279" y="29.581553" style="stroke: #000000"/>
      </g>
     </g>
    </g>
    <g id="text_8">
     <!-- \textit{time} -->
     <g transform="translate(21.036997 127.385029) rotate(-90) scale(0.2 -0.2)">
      <defs>
       <path id="CMSSI17-74" d="M 1574 2368 
L 2406 2368 
L 2483 2737 
L 1651 2737 
L 1824 3520 
L 1370 3520 
L 1197 2737 
L 691 2737 
L 614 2368 
L 1107 2368 
C 1062 2150 813 992 794 889 
C 736 608 723 551 723 409 
C 723 6 915 -64 1101 -64 
C 1549 -64 1920 114 2042 172 
L 2022 548 
C 1811 395 1600 337 1440 337 
C 1293 337 1222 427 1222 620 
C 1222 690 1229 728 1242 779 
L 1574 2368 
z
" transform="scale(0.015625)"/>
       <path id="CMSSI17-69" d="M 1869 4183 
L 1331 4183 
L 1222 3648 
L 1760 3648 
L 1869 4183 
z
M 474 0 
L 947 0 
L 1530 2732 
L 1056 2732 
L 474 0 
z
" transform="scale(0.015625)"/>
       <path id="CMSSI17-6d" d="M 4691 1904 
C 4704 1955 4723 2108 4723 2221 
C 4723 2387 4723 2820 4058 2820 
C 3558 2820 3226 2508 3059 2343 
C 3008 2687 2765 2820 2394 2820 
C 1914 2820 1562 2516 1446 2394 
L 1530 2788 
L 1062 2788 
L 474 32 
L 960 32 
L 1254 1407 
C 1312 1687 1478 2432 2067 2432 
C 2362 2432 2554 2330 2554 2049 
C 2554 1960 2547 1935 2541 1903 
L 2138 32 
L 2624 32 
L 2918 1407 
C 2976 1687 3142 2432 3731 2432 
C 4026 2432 4218 2330 4218 2049 
C 4218 1960 4211 1935 4205 1903 
L 3802 32 
L 4288 32 
L 4691 1904 
z
" transform="scale(0.015625)"/>
       <path id="CMSSI17-65" d="M 2803 1377 
C 2842 1545 2861 1719 2861 1893 
C 2861 2655 2374 2816 2022 2816 
C 1229 2816 454 1945 454 1050 
C 454 352 922 -64 1498 -64 
C 1760 -64 2118 0 2528 248 
L 2573 655 
C 2144 356 1747 325 1594 325 
C 1165 325 915 660 915 1104 
C 915 1377 934 1377 1062 1377 
L 2803 1377 
z
M 1069 1728 
C 1274 2159 1632 2427 1933 2427 
C 2458 2427 2458 1884 2458 1728 
L 1069 1728 
z
" transform="scale(0.015625)"/>
      </defs>
      <use xlink:href="#CMSSI17-74" transform="scale(0.996264)"/>
      <use xlink:href="#CMSSI17-69" transform="translate(33.831567 0) scale(0.996264)"/>
      <use xlink:href="#CMSSI17-6d" transform="translate(56.01229 0) scale(0.996264)"/>
      <use xlink:href="#CMSSI17-65" transform="translate(130.241544 0) scale(0.996264)"/>
     </g>
    </g>
   </g>
   <g id="line2d_30">
    <defs>
     <path id="m599b6d861d" d="M -5 5 
L 5 -5 
M -5 -5 
L 5 5 
" style="stroke: #ffa500"/>
    </defs>
    <g clip-path="url(#p40a3f7ef78)">
     <use xlink:href="#m599b6d861d" x="337.742832" y="53.577575" style="fill: #ffa500; stroke: #ffa500"/>
     <use xlink:href="#m599b6d861d" x="345.968876" y="79.837994" style="fill: #ffa500; stroke: #ffa500"/>
     <use xlink:href="#m599b6d861d" x="354.194921" y="108.872905" style="fill: #ffa500; stroke: #ffa500"/>
     <use xlink:href="#m599b6d861d" x="362.420965" y="118.766091" style="fill: #ffa500; stroke: #ffa500"/>
     <use xlink:href="#m599b6d861d" x="370.647009" y="131.736872" style="fill: #ffa500; stroke: #ffa500"/>
     <use xlink:href="#m599b6d861d" x="378.873053" y="143.547793" style="fill: #ffa500; stroke: #ffa500"/>
     <use xlink:href="#m599b6d861d" x="387.099098" y="151.802626" style="fill: #ffa500; stroke: #ffa500"/>
    </g>
   </g>
   <g id="line2d_31">
    <path d="M 337.742832 40.13856 
L 345.968876 63.968119 
L 354.194921 84.989541 
L 362.420965 102.7357 
L 370.647009 116.401946 
L 378.873053 124.249441 
L 387.099098 119.767886 
" clip-path="url(#p40a3f7ef78)" style="fill: none; stroke: #ffa500; stroke-width: 2; stroke-linecap: square"/>
   </g>
   <g id="line2d_32">
    <defs>
     <path id="m06ede686a0" d="M -5 5 
L 5 -5 
M -5 -5 
L 5 5 
" style="stroke: #ff0000"/>
    </defs>
    <g clip-path="url(#p40a3f7ef78)">
     <use xlink:href="#m06ede686a0" x="222.578213" y="52.315565" style="fill: #ff0000; stroke: #ff0000"/>
     <use xlink:href="#m06ede686a0" x="230.804257" y="76.040009" style="fill: #ff0000; stroke: #ff0000"/>
     <use xlink:href="#m06ede686a0" x="239.030302" y="93.184284" style="fill: #ff0000; stroke: #ff0000"/>
     <use xlink:href="#m06ede686a0" x="247.256346" y="119.879252" style="fill: #ff0000; stroke: #ff0000"/>
     <use xlink:href="#m06ede686a0" x="255.48239" y="129.814902" style="fill: #ff0000; stroke: #ff0000"/>
     <use xlink:href="#m06ede686a0" x="263.708434" y="144.322052" style="fill: #ff0000; stroke: #ff0000"/>
     <use xlink:href="#m06ede686a0" x="271.934478" y="152.067039" style="fill: #ff0000; stroke: #ff0000"/>
     <use xlink:href="#m06ede686a0" x="280.160523" y="160.383689" style="fill: #ff0000; stroke: #ff0000"/>
     <use xlink:href="#m06ede686a0" x="288.386567" y="167.357006" style="fill: #ff0000; stroke: #ff0000"/>
    </g>
   </g>
   <g id="line2d_33">
    <path d="M 222.578213 34.596997 
L 230.804257 56.920565 
L 239.030302 77.194977 
L 247.256346 95.19294 
L 255.48239 110.578091 
L 263.708434 122.79926 
L 271.934478 130.786665 
L 280.160523 131.630678 
L 288.386567 81.135235 
" clip-path="url(#p40a3f7ef78)" style="fill: none; stroke: #ff0000; stroke-width: 2; stroke-linecap: square"/>
   </g>
   <g id="line2d_34">
    <defs>
     <path id="mfc673b95bc" d="M -5 5 
L 5 -5 
M -5 -5 
L 5 5 
" style="stroke: #008000"/>
    </defs>
    <g clip-path="url(#p40a3f7ef78)">
     <use xlink:href="#mfc673b95bc" x="164.995904" y="49.283386" style="fill: #008000; stroke: #008000"/>
     <use xlink:href="#mfc673b95bc" x="173.221948" y="69.233985" style="fill: #008000; stroke: #008000"/>
     <use xlink:href="#mfc673b95bc" x="181.447992" y="96.391438" style="fill: #008000; stroke: #008000"/>
     <use xlink:href="#mfc673b95bc" x="189.674036" y="114.821665" style="fill: #008000; stroke: #008000"/>
     <use xlink:href="#mfc673b95bc" x="197.90008" y="123.723388" style="fill: #008000; stroke: #008000"/>
     <use xlink:href="#mfc673b95bc" x="206.126125" y="146.856111" style="fill: #008000; stroke: #008000"/>
     <use xlink:href="#mfc673b95bc" x="214.352169" y="152.773872" style="fill: #008000; stroke: #008000"/>
     <use xlink:href="#mfc673b95bc" x="222.578213" y="159.240447" style="fill: #008000; stroke: #008000"/>
     <use xlink:href="#mfc673b95bc" x="230.804257" y="165.114413" style="fill: #008000; stroke: #008000"/>
    </g>
   </g>
   <g id="line2d_35">
    <path d="M 164.995904 40.122745 
L 173.221948 60.726363 
L 181.447992 79.58322 
L 189.674036 96.533311 
L 197.90008 111.348325 
L 206.126125 123.677441 
L 214.352169 132.915899 
L 222.578213 137.7931 
L 230.804257 134.214111 
" clip-path="url(#p40a3f7ef78)" style="fill: none; stroke: #008000; stroke-width: 2; stroke-linecap: square"/>
   </g>
   <g id="line2d_36">
    <defs>
     <path id="ma6ddf967cc" d="M -5 5 
L 5 -5 
M -5 -5 
L 5 5 
" style="stroke: #0000ff"/>
    </defs>
    <g clip-path="url(#p40a3f7ef78)">
     <use xlink:href="#ma6ddf967cc" x="132.091727" y="60.586309" style="fill: #0000ff; stroke: #0000ff"/>
     <use xlink:href="#ma6ddf967cc" x="140.317771" y="68.630934" style="fill: #0000ff; stroke: #0000ff"/>
     <use xlink:href="#ma6ddf967cc" x="148.543815" y="93.23326" style="fill: #0000ff; stroke: #0000ff"/>
     <use xlink:href="#ma6ddf967cc" x="156.769859" y="117.507761" style="fill: #0000ff; stroke: #0000ff"/>
     <use xlink:href="#ma6ddf967cc" x="164.995904" y="125.443154" style="fill: #0000ff; stroke: #0000ff"/>
     <use xlink:href="#ma6ddf967cc" x="173.221948" y="142.860611" style="fill: #0000ff; stroke: #0000ff"/>
     <use xlink:href="#ma6ddf967cc" x="181.447992" y="154.127995" style="fill: #0000ff; stroke: #0000ff"/>
     <use xlink:href="#ma6ddf967cc" x="189.674036" y="164.375785" style="fill: #0000ff; stroke: #0000ff"/>
     <use xlink:href="#ma6ddf967cc" x="197.90008" y="168.774823" style="fill: #0000ff; stroke: #0000ff"/>
     <use xlink:href="#ma6ddf967cc" x="206.126125" y="171.572723" style="fill: #0000ff; stroke: #0000ff"/>
    </g>
   </g>
   <g id="line2d_37">
    <path d="M 132.091727 51.415608 
L 140.317771 70.327592 
L 148.543815 87.630303 
L 156.769859 103.189067 
L 164.995904 116.810987 
L 173.221948 128.201298 
L 181.447992 136.861695 
L 189.674036 141.793733 
L 197.90008 140.185432 
L 206.126125 81.144477 
" clip-path="url(#p40a3f7ef78)" style="fill: none; stroke: #0000ff; stroke-width: 2; stroke-linecap: square"/>
   </g>
   <g id="line2d_38">
    <defs>
     <path id="m5a85f924c5" d="M -5 5 
L 5 -5 
M -5 -5 
L 5 5 
" style="stroke: #800080"/>
    </defs>
    <g clip-path="url(#p40a3f7ef78)">
     <use xlink:href="#m5a85f924c5" x="107.413594" y="57.849008" style="fill: #800080; stroke: #800080"/>
     <use xlink:href="#m5a85f924c5" x="115.639638" y="75.726652" style="fill: #800080; stroke: #800080"/>
     <use xlink:href="#m5a85f924c5" x="123.865682" y="93.542227" style="fill: #800080; stroke: #800080"/>
     <use xlink:href="#m5a85f924c5" x="132.091727" y="113.306347" style="fill: #800080; stroke: #800080"/>
     <use xlink:href="#m5a85f924c5" x="140.317771" y="130.755957" style="fill: #800080; stroke: #800080"/>
     <use xlink:href="#m5a85f924c5" x="148.543815" y="141.270802" style="fill: #800080; stroke: #800080"/>
     <use xlink:href="#m5a85f924c5" x="156.769859" y="154.336506" style="fill: #800080; stroke: #800080"/>
     <use xlink:href="#m5a85f924c5" x="164.995904" y="165.202994" style="fill: #800080; stroke: #800080"/>
     <use xlink:href="#m5a85f924c5" x="173.221948" y="175.827623" style="fill: #800080; stroke: #800080"/>
     <use xlink:href="#m5a85f924c5" x="181.447992" y="176.675601" style="fill: #800080; stroke: #800080"/>
    </g>
   </g>
   <g id="line2d_39">
    <path d="M 107.413594 54.480035 
L 115.639638 72.637214 
L 123.865682 89.297141 
L 132.091727 104.356748 
L 140.317771 117.667941 
L 148.543815 129.007969 
L 156.769859 138.015256 
L 164.995904 144.023513 
L 173.221948 145.485092 
L 181.447992 136.059421 
" clip-path="url(#p40a3f7ef78)" style="fill: none; stroke: #800080; stroke-width: 2; stroke-linecap: square"/>
   </g>
   <g id="line2d_40">
    <defs>
     <path id="mb2e1bccdad" d="M -5 5 
L 5 -5 
M -5 -5 
L 5 5 
" style="stroke: #a52a2a"/>
    </defs>
    <g clip-path="url(#p40a3f7ef78)">
     <use xlink:href="#mb2e1bccdad" x="82.735461" y="62.258113" style="fill: #a52a2a; stroke: #a52a2a"/>
     <use xlink:href="#mb2e1bccdad" x="82.735461" y="58.740628" style="fill: #a52a2a; stroke: #a52a2a"/>
     <use xlink:href="#mb2e1bccdad" x="90.961505" y="94.035026" style="fill: #a52a2a; stroke: #a52a2a"/>
     <use xlink:href="#mb2e1bccdad" x="90.961505" y="90.545403" style="fill: #a52a2a; stroke: #a52a2a"/>
     <use xlink:href="#mb2e1bccdad" x="99.18755" y="106.853657" style="fill: #a52a2a; stroke: #a52a2a"/>
     <use xlink:href="#mb2e1bccdad" x="99.18755" y="107.400807" style="fill: #a52a2a; stroke: #a52a2a"/>
     <use xlink:href="#mb2e1bccdad" x="107.413594" y="127.59159" style="fill: #a52a2a; stroke: #a52a2a"/>
     <use xlink:href="#mb2e1bccdad" x="107.413594" y="124.502176" style="fill: #a52a2a; stroke: #a52a2a"/>
     <use xlink:href="#mb2e1bccdad" x="115.639638" y="136.583043" style="fill: #a52a2a; stroke: #a52a2a"/>
     <use xlink:href="#mb2e1bccdad" x="115.639638" y="137.39987" style="fill: #a52a2a; stroke: #a52a2a"/>
     <use xlink:href="#mb2e1bccdad" x="123.865682" y="151.293497" style="fill: #a52a2a; stroke: #a52a2a"/>
     <use xlink:href="#mb2e1bccdad" x="123.865682" y="149.805375" style="fill: #a52a2a; stroke: #a52a2a"/>
     <use xlink:href="#mb2e1bccdad" x="132.091727" y="162.886995" style="fill: #a52a2a; stroke: #a52a2a"/>
     <use xlink:href="#mb2e1bccdad" x="132.091727" y="160.833145" style="fill: #a52a2a; stroke: #a52a2a"/>
     <use xlink:href="#mb2e1bccdad" x="140.317771" y="168.462713" style="fill: #a52a2a; stroke: #a52a2a"/>
     <use xlink:href="#mb2e1bccdad" x="140.317771" y="161.494568" style="fill: #a52a2a; stroke: #a52a2a"/>
     <use xlink:href="#mb2e1bccdad" x="148.543815" y="171.946672" style="fill: #a52a2a; stroke: #a52a2a"/>
     <use xlink:href="#mb2e1bccdad" x="148.543815" y="173.686404" style="fill: #a52a2a; stroke: #a52a2a"/>
     <use xlink:href="#mb2e1bccdad" x="156.769859" y="185.796997" style="fill: #a52a2a; stroke: #a52a2a"/>
     <use xlink:href="#mb2e1bccdad" x="156.769859" y="183.648843" style="fill: #a52a2a; stroke: #a52a2a"/>
    </g>
   </g>
   <g id="line2d_41">
    <path d="M 82.735461 74.601077 
L 82.735461 74.601077 
L 90.961505 90.657574 
L 90.961505 90.657574 
L 99.18755 105.244403 
L 99.18755 105.244403 
L 107.413594 118.280314 
L 107.413594 118.280314 
L 115.639638 129.63467 
L 115.639638 129.63467 
L 123.865682 139.096825 
L 123.865682 139.096825 
L 132.091727 146.306632 
L 132.091727 146.306632 
L 140.317771 150.567203 
L 140.317771 150.567203 
L 148.543815 150.152844 
L 148.543815 150.152844 
L 156.769859 136.705279 
L 156.769859 136.705279 
" clip-path="url(#p40a3f7ef78)" style="fill: none; stroke: #a52a2a; stroke-width: 2; stroke-linecap: square"/>
   </g>
   <g id="patch_3">
    <path d="M 67.517279 193.356997 
L 67.517279 27.036997 
" style="fill: none; stroke: #000000; stroke-linejoin: miter; stroke-linecap: square"/>
   </g>
   <g id="patch_4">
    <path d="M 402.317279 193.356997 
L 402.317279 27.036997 
" style="fill: none; stroke: #000000; stroke-linejoin: miter; stroke-linecap: square"/>
   </g>
   <g id="patch_5">
    <path d="M 67.517279 193.356997 
L 402.317279 193.356997 
" style="fill: none; stroke: #000000; stroke-linejoin: miter; stroke-linecap: square"/>
   </g>
   <g id="patch_6">
    <path d="M 67.517279 27.036997 
L 402.317279 27.036997 
" style="fill: none; stroke: #000000; stroke-linejoin: miter; stroke-linecap: square"/>
   </g>
   <g id="text_9">
    <!-- solution 1 $\lambda=2$ -->
    <g transform="translate(170.601069 21.036997) scale(0.2 -0.2)">
     <defs>
      <path id="CMSS17-73" d="M 2061 2627 
C 1683 2807 1389 2807 1197 2807 
C 742 2807 198 2648 198 2003 
C 198 1359 902 1218 1094 1179 
C 1389 1122 1715 1058 1715 740 
C 1715 337 1254 337 1171 337 
C 915 337 563 407 243 638 
L 166 210 
C 531 0 883 -64 1178 -64 
C 1965 -64 2163 416 2163 781 
C 2163 1094 1984 1305 1862 1401 
C 1651 1568 1574 1587 1050 1696 
C 960 1709 646 1779 646 2066 
C 646 2432 1050 2432 1139 2432 
C 1555 2432 1811 2303 1984 2208 
L 2061 2627 
z
" transform="scale(0.015625)"/>
      <path id="CMSS17-6f" d="M 2829 1356 
C 2829 2176 2221 2816 1504 2816 
C 768 2816 173 2157 173 1356 
C 173 544 787 -64 1498 -64 
C 2227 -64 2829 563 2829 1356 
z
M 1504 337 
C 1050 337 659 709 659 1408 
C 659 2151 1114 2427 1498 2427 
C 1914 2427 2342 2126 2342 1408 
C 2342 683 1926 337 1504 337 
z
" transform="scale(0.015625)"/>
      <path id="CMSS17-6c" d="M 947 4416 
L 474 4416 
L 474 0 
L 947 0 
L 947 4416 
z
" transform="scale(0.015625)"/>
      <path id="CMSS17-75" d="M 2618 2739 
L 2131 2739 
L 2131 972 
C 2131 498 1786 306 1421 306 
C 998 306 960 447 960 709 
L 960 2739 
L 474 2739 
L 474 678 
C 474 179 646 -64 1088 -64 
C 1306 -64 1798 -13 2144 306 
L 2144 0 
L 2618 0 
L 2618 2739 
z
" transform="scale(0.015625)"/>
      <path id="CMSS17-74" d="M 1069 2368 
L 1901 2368 
L 1901 2737 
L 1069 2737 
L 1069 3520 
L 614 3520 
L 614 2737 
L 109 2737 
L 109 2368 
L 602 2368 
L 602 749 
C 602 384 685 -64 1107 -64 
C 1427 -64 1722 25 2003 172 
L 1901 548 
C 1747 414 1562 337 1363 337 
C 1082 337 1069 696 1069 856 
L 1069 2368 
z
" transform="scale(0.015625)"/>
      <path id="CMSS17-69" d="M 979 4183 
L 442 4183 
L 442 3648 
L 979 3648 
L 979 4183 
z
M 947 2739 
L 474 2739 
L 474 0 
L 947 0 
L 947 2739 
z
" transform="scale(0.015625)"/>
      <path id="CMSS17-6e" d="M 2618 1877 
C 2618 2283 2522 2816 1798 2816 
C 1389 2816 1120 2606 941 2389 
L 941 2758 
L 474 2758 
L 474 0 
L 960 0 
L 960 1559 
C 960 1964 1114 2428 1549 2428 
C 2112 2428 2131 2048 2131 1829 
L 2131 0 
L 2618 0 
L 2618 1877 
z
" transform="scale(0.015625)"/>
      <path id="CMSS17-31" d="M 1818 4288 
L 1696 4288 
C 1350 3940 947 3890 538 3890 
L 538 3520 
C 723 3520 1024 3520 1325 3667 
L 1325 369 
L 570 369 
L 570 0 
L 2573 0 
L 2573 369 
L 1818 369 
L 1818 4288 
z
" transform="scale(0.015625)"/>
      <path id="CMMI12-15" d="M 1978 3965 
C 1818 4416 1312 4416 1229 4416 
C 1190 4416 1120 4416 1120 4352 
C 1120 4302 1158 4295 1190 4289 
C 1286 4276 1363 4263 1466 4080 
C 1530 3959 2189 2059 2189 2046 
C 2189 2040 2182 2033 2131 1982 
L 467 311 
C 390 234 339 183 339 102 
C 339 12 416 -64 518 -64 
C 544 -64 614 -51 653 -13 
C 755 82 1670 1194 2253 1881 
C 2419 1383 2624 797 2822 261 
C 2854 166 2886 76 2976 -6 
C 3040 -64 3053 -64 3232 -64 
L 3354 -64 
C 3379 -64 3424 -64 3424 -13 
C 3424 13 3418 19 3392 45 
C 3334 115 3290 229 3264 306 
L 1978 3965 
z
" transform="scale(0.015625)"/>
      <path id="CMR17-3d" d="M 4115 2017 
C 4211 2017 4307 2017 4307 2125 
C 4307 2240 4198 2240 4090 2240 
L 512 2240 
C 403 2240 294 2240 294 2125 
C 294 2017 390 2017 486 2017 
L 4115 2017 
z
M 4090 896 
C 4198 896 4307 896 4307 1011 
C 4307 1119 4211 1119 4115 1119 
L 486 1119 
C 390 1119 294 1119 294 1011 
C 294 896 403 896 512 896 
L 4090 896 
z
" transform="scale(0.015625)"/>
     </defs>
     <use xlink:href="#CMSS17-73" transform="scale(0.996264)"/>
     <use xlink:href="#CMSS17-6f" transform="translate(35.913542 0) scale(0.996264)"/>
     <use xlink:href="#CMSS17-6c" transform="translate(82.757166 0) scale(0.996264)"/>
     <use xlink:href="#CMSS17-75" transform="translate(104.937889 0) scale(0.996264)"/>
     <use xlink:href="#CMSS17-74" transform="translate(153.142832 0) scale(0.996264)"/>
     <use xlink:href="#CMSS17-69" transform="translate(186.974398 0) scale(0.996264)"/>
     <use xlink:href="#CMSS17-6f" transform="translate(209.155121 0) scale(0.996264)"/>
     <use xlink:href="#CMSS17-6e" transform="translate(255.998745 0) scale(0.996264)"/>
     <use xlink:href="#CMSS17-31" transform="translate(335.432801 0) scale(0.996264)"/>
     <use xlink:href="#CMMI12-15" transform="translate(413.505537 0) scale(0.996264)"/>
     <use xlink:href="#CMR17-3d" transform="translate(498.083618 0) scale(0.996264)"/>
     <use xlink:href="#CMR17-32" transform="translate(597.472415 0) scale(0.996264)"/>
    </g>
   </g>
   <g id="legend_1">
    <g id="patch_7">
     <path d="M 256.014029 210.290798 
L 388.317279 210.290798 
Q 392.317279 210.290798 392.317279 206.290798 
L 392.317279 41.036997 
Q 392.317279 37.036997 388.317279 37.036997 
L 256.014029 37.036997 
Q 252.014029 37.036997 252.014029 41.036997 
L 252.014029 206.290798 
Q 252.014029 210.290798 256.014029 210.290798 
z
" style="fill: #ffffff; opacity: 0.9; stroke: #000000; stroke-linejoin: miter"/>
    </g>
    <g id="line2d_42">
     <g>
      <use xlink:href="#m599b6d861d" x="280.014029" y="52.036997" style="fill: #ffa500; stroke: #ffa500"/>
     </g>
    </g>
    <g id="text_10">
     <!-- $g=0.1$ -->
     <g transform="translate(316.014029 59.036997) scale(0.2 -0.2)">
      <defs>
       <path id="CMMI12-67" d="M 2163 811 
C 2138 709 2125 683 2042 588 
C 1779 249 1510 128 1312 128 
C 1101 128 902 294 902 734 
C 902 1073 1094 1788 1235 2076 
C 1421 2433 1709 2689 1978 2689 
C 2400 2689 2483 2165 2483 2127 
L 2464 2037 
L 2163 811 
z
M 2560 2395 
C 2477 2580 2298 2816 1978 2816 
C 1280 2816 486 1941 486 990 
C 486 326 890 0 1299 0 
C 1638 0 1939 268 2054 396 
L 1914 -171 
C 1824 -516 1786 -674 1555 -894 
C 1293 -1152 1050 -1152 909 -1152 
C 717 -1152 557 -1139 397 -1089 
C 602 -1033 653 -858 653 -789 
C 653 -689 576 -588 435 -588 
C 282 -588 115 -714 115 -922 
C 115 -1180 378 -1280 922 -1280 
C 1747 -1280 2176 -753 2259 -410 
L 2970 2435 
C 2989 2511 2989 2524 2989 2536 
C 2989 2625 2918 2695 2822 2695 
C 2669 2695 2579 2567 2560 2395 
z
" transform="scale(0.015625)"/>
       <path id="CMMI12-3a" d="M 1178 307 
C 1178 492 1024 619 870 619 
C 685 619 557 466 557 313 
C 557 128 710 0 864 0 
C 1050 0 1178 153 1178 307 
z
" transform="scale(0.015625)"/>
      </defs>
      <use xlink:href="#CMMI12-67" transform="scale(0.996264)"/>
      <use xlink:href="#CMR17-3d" transform="translate(77.959498 0) scale(0.996264)"/>
      <use xlink:href="#CMR17-30" transform="translate(177.348295 0) scale(0.996264)"/>
      <use xlink:href="#CMMI12-3a" transform="translate(223.038772 0) scale(0.996264)"/>
      <use xlink:href="#CMR17-31" transform="translate(250.13595 0) scale(0.996264)"/>
     </g>
    </g>
    <g id="line2d_43">
     <g>
      <use xlink:href="#m06ede686a0" x="280.014029" y="79.91263" style="fill: #ff0000; stroke: #ff0000"/>
     </g>
    </g>
    <g id="text_11">
     <!-- $g=0.15$ -->
     <g transform="translate(316.014029 86.91263) scale(0.2 -0.2)">
      <defs>
       <path id="CMR17-35" d="M 730 3692 
C 794 3666 1056 3584 1325 3584 
C 1920 3584 2246 3911 2432 4100 
C 2432 4157 2432 4192 2394 4192 
C 2387 4192 2374 4192 2323 4163 
C 2099 4058 1837 3973 1517 3973 
C 1325 3973 1037 3999 723 4139 
C 653 4171 640 4171 634 4171 
C 602 4171 595 4164 595 4037 
L 595 2203 
C 595 2089 595 2057 659 2057 
C 691 2057 704 2070 736 2114 
C 941 2401 1222 2522 1542 2522 
C 1766 2522 2246 2382 2246 1289 
C 2246 1085 2246 715 2054 421 
C 1894 159 1645 25 1370 25 
C 947 25 518 320 403 814 
C 429 807 480 795 506 795 
C 589 795 749 840 749 1038 
C 749 1210 627 1280 506 1280 
C 358 1280 262 1190 262 1011 
C 262 454 704 -128 1382 -128 
C 2042 -128 2669 440 2669 1264 
C 2669 2030 2170 2624 1549 2624 
C 1222 2624 947 2503 730 2274 
L 730 3692 
z
" transform="scale(0.015625)"/>
      </defs>
      <use xlink:href="#CMMI12-67" transform="scale(0.996264)"/>
      <use xlink:href="#CMR17-3d" transform="translate(77.959498 0) scale(0.996264)"/>
      <use xlink:href="#CMR17-30" transform="translate(177.348295 0) scale(0.996264)"/>
      <use xlink:href="#CMMI12-3a" transform="translate(223.038772 0) scale(0.996264)"/>
      <use xlink:href="#CMR17-31" transform="translate(250.13595 0) scale(0.996264)"/>
      <use xlink:href="#CMR17-35" transform="translate(295.826427 0) scale(0.996264)"/>
     </g>
    </g>
    <g id="line2d_44">
     <g>
      <use xlink:href="#mfc673b95bc" x="280.014029" y="107.788264" style="fill: #008000; stroke: #008000"/>
     </g>
    </g>
    <g id="text_12">
     <!-- $g=0.2$ -->
     <g transform="translate(316.014029 114.788264) scale(0.2 -0.2)">
      <use xlink:href="#CMMI12-67" transform="scale(0.996264)"/>
      <use xlink:href="#CMR17-3d" transform="translate(77.959498 0) scale(0.996264)"/>
      <use xlink:href="#CMR17-30" transform="translate(177.348295 0) scale(0.996264)"/>
      <use xlink:href="#CMMI12-3a" transform="translate(223.038772 0) scale(0.996264)"/>
      <use xlink:href="#CMR17-32" transform="translate(250.13595 0) scale(0.996264)"/>
     </g>
    </g>
    <g id="line2d_45">
     <g>
      <use xlink:href="#ma6ddf967cc" x="280.014029" y="135.663898" style="fill: #0000ff; stroke: #0000ff"/>
     </g>
    </g>
    <g id="text_13">
     <!-- $g=0.25$ -->
     <g transform="translate(316.014029 142.663898) scale(0.2 -0.2)">
      <use xlink:href="#CMMI12-67" transform="scale(0.996264)"/>
      <use xlink:href="#CMR17-3d" transform="translate(77.959498 0) scale(0.996264)"/>
      <use xlink:href="#CMR17-30" transform="translate(177.348295 0) scale(0.996264)"/>
      <use xlink:href="#CMMI12-3a" transform="translate(223.038772 0) scale(0.996264)"/>
      <use xlink:href="#CMR17-32" transform="translate(250.13595 0) scale(0.996264)"/>
      <use xlink:href="#CMR17-35" transform="translate(295.826427 0) scale(0.996264)"/>
     </g>
    </g>
    <g id="line2d_46">
     <g>
      <use xlink:href="#m5a85f924c5" x="280.014029" y="163.539531" style="fill: #800080; stroke: #800080"/>
     </g>
    </g>
    <g id="text_14">
     <!-- $g=0.3$ -->
     <g transform="translate(316.014029 170.539531) scale(0.2 -0.2)">
      <use xlink:href="#CMMI12-67" transform="scale(0.996264)"/>
      <use xlink:href="#CMR17-3d" transform="translate(77.959498 0) scale(0.996264)"/>
      <use xlink:href="#CMR17-30" transform="translate(177.348295 0) scale(0.996264)"/>
      <use xlink:href="#CMMI12-3a" transform="translate(223.038772 0) scale(0.996264)"/>
      <use xlink:href="#CMR17-33" transform="translate(250.13595 0) scale(0.996264)"/>
     </g>
    </g>
    <g id="line2d_47">
     <g>
      <use xlink:href="#mb2e1bccdad" x="280.014029" y="191.415165" style="fill: #a52a2a; stroke: #a52a2a"/>
     </g>
    </g>
    <g id="text_15">
     <!-- $g=0.4$ -->
     <g transform="translate(316.014029 198.415165) scale(0.2 -0.2)">
      <defs>
       <path id="CMR17-34" d="M 2150 4122 
C 2150 4256 2144 4256 2029 4256 
L 128 1254 
L 128 1088 
L 1779 1088 
L 1779 457 
C 1779 224 1766 160 1318 160 
L 1197 160 
L 1197 0 
C 1402 0 1747 0 1965 0 
C 2182 0 2528 0 2733 0 
L 2733 160 
L 2611 160 
C 2163 160 2150 224 2150 457 
L 2150 1088 
L 2803 1088 
L 2803 1254 
L 2150 1254 
L 2150 4122 
z
M 1798 3703 
L 1798 1254 
L 256 1254 
L 1798 3703 
z
" transform="scale(0.015625)"/>
      </defs>
      <use xlink:href="#CMMI12-67" transform="scale(0.996264)"/>
      <use xlink:href="#CMR17-3d" transform="translate(77.959498 0) scale(0.996264)"/>
      <use xlink:href="#CMR17-30" transform="translate(177.348295 0) scale(0.996264)"/>
      <use xlink:href="#CMMI12-3a" transform="translate(223.038772 0) scale(0.996264)"/>
      <use xlink:href="#CMR17-34" transform="translate(250.13595 0) scale(0.996264)"/>
     </g>
    </g>
   </g>
  </g>
 </g>
 <defs>
  <clipPath id="p40a3f7ef78">
   <rect x="67.517279" y="27.036997" width="334.8" height="166.32"/>
  </clipPath>
 </defs>
</svg>
