<?xml version="1.0" encoding="utf-8" standalone="no"?>
<!DOCTYPE svg PUBLIC "-//W3C//DTD SVG 1.1//EN"
  "http://www.w3.org/Graphics/SVG/1.1/DTD/svg11.dtd">
<svg xmlns:xlink="http://www.w3.org/1999/xlink" width="424.8pt" height="208.8pt" viewBox="0 0 424.8 208.8" xmlns="http://www.w3.org/2000/svg" version="1.1">
 <metadata>
  <rdf:RDF xmlns:dc="http://purl.org/dc/elements/1.1/" xmlns:cc="http://creativecommons.org/ns#" xmlns:rdf="http://www.w3.org/1999/02/22-rdf-syntax-ns#">
   <cc:Work>
    <dc:type rdf:resource="http://purl.org/dc/dcmitype/StillImage"/>
    <dc:date>2025-08-03T15:04:12.361139</dc:date>
    <dc:format>image/svg+xml</dc:format>
    <dc:creator>
     <cc:Agent>
      <dc:title>Matplotlib v3.7.2, https://matplotlib.org/</dc:title>
     </cc:Agent>
    </dc:creator>
   </cc:Work>
  </rdf:RDF>
 </metadata>
 <defs>
  <style type="text/css">*{stroke-linejoin: round; stroke-linecap: butt}</style>
 </defs>
 <g id="figure_1">
  <g id="patch_1">
   <path d="M -0 208.8 
L 424.8 208.8 
L 424.8 -0 
L -0 -0 
z
" style="fill: #ffffff"/>
  </g>
  <g id="axes_1">
   <g id="patch_2">
    <path d="M 45.804649 170.38737 
L 413.030952 170.38737 
L 413.030952 14.118498 
L 45.804649 14.118498 
z
" style="fill: #ffffff"/>
   </g>
   <g id="matplotlib.axis_1">
    <g id="xtick_1">
     <g id="line2d_1">
      <defs>
       <path id="m0eb89a74b9" d="M 0 0 
L 0 10 
" style="stroke: #000000; stroke-width: 2"/>
      </defs>
      <g>
       <use xlink:href="#m0eb89a74b9" x="63.291616" y="170.38737" style="stroke: #000000; stroke-width: 2"/>
      </g>
     </g>
     <g id="text_1">
      <!-- $\mathdefault{0}$ -->
      <g transform="translate(58.722568 197.724366) scale(0.2 -0.2)">
       <defs>
        <path id="CMR17-30" d="M 2688 2025 
C 2688 2416 2682 3080 2413 3591 
C 2176 4039 1798 4198 1466 4198 
C 1158 4198 768 4058 525 3597 
C 269 3118 243 2524 243 2025 
C 243 1661 250 1106 448 619 
C 723 -39 1216 -128 1466 -128 
C 1760 -128 2208 -7 2470 600 
C 2662 1042 2688 1559 2688 2025 
z
M 1466 -26 
C 1056 -26 813 325 723 812 
C 653 1188 653 1738 653 2096 
C 653 2588 653 2997 736 3387 
C 858 3929 1216 4096 1466 4096 
C 1728 4096 2067 3923 2189 3400 
C 2272 3036 2278 2607 2278 2096 
C 2278 1680 2278 1169 2202 792 
C 2067 95 1690 -26 1466 -26 
z
" transform="scale(0.015625)"/>
       </defs>
       <use xlink:href="#CMR17-30" transform="scale(0.996264)"/>
      </g>
     </g>
    </g>
    <g id="xtick_2">
     <g id="line2d_2">
      <g>
       <use xlink:href="#m0eb89a74b9" x="150.72645" y="170.38737" style="stroke: #000000; stroke-width: 2"/>
      </g>
     </g>
     <g id="text_2">
      <!-- $\mathdefault{1}$ -->
      <g transform="translate(146.157402 197.724366) scale(0.2 -0.2)">
       <defs>
        <path id="CMR17-31" d="M 1702 4058 
C 1702 4192 1696 4192 1606 4192 
C 1357 3916 979 3827 621 3827 
C 602 3827 570 3827 563 3808 
C 557 3795 557 3782 557 3648 
C 755 3648 1088 3686 1344 3839 
L 1344 461 
C 1344 236 1331 160 781 160 
L 589 160 
L 589 0 
C 896 0 1216 0 1523 0 
C 1830 0 2150 0 2458 0 
L 2458 160 
L 2266 160 
C 1715 160 1702 230 1702 458 
L 1702 4058 
z
" transform="scale(0.015625)"/>
       </defs>
       <use xlink:href="#CMR17-31" transform="scale(0.996264)"/>
      </g>
     </g>
    </g>
    <g id="xtick_3">
     <g id="line2d_3">
      <g>
       <use xlink:href="#m0eb89a74b9" x="238.161284" y="170.38737" style="stroke: #000000; stroke-width: 2"/>
      </g>
     </g>
     <g id="text_3">
      <!-- $\mathdefault{2}$ -->
      <g transform="translate(233.592236 197.724366) scale(0.2 -0.2)">
       <defs>
        <path id="CMR17-32" d="M 2669 989 
L 2554 989 
C 2490 536 2438 459 2413 420 
C 2381 369 1920 369 1830 369 
L 602 369 
C 832 619 1280 1072 1824 1597 
C 2214 1967 2669 2402 2669 3035 
C 2669 3790 2067 4224 1395 4224 
C 691 4224 262 3604 262 3030 
C 262 2780 448 2748 525 2748 
C 589 2748 781 2787 781 3010 
C 781 3207 614 3264 525 3264 
C 486 3264 448 3258 422 3245 
C 544 3790 915 4058 1306 4058 
C 1862 4058 2227 3617 2227 3035 
C 2227 2479 1901 2000 1536 1584 
L 262 146 
L 262 0 
L 2515 0 
L 2669 989 
z
" transform="scale(0.015625)"/>
       </defs>
       <use xlink:href="#CMR17-32" transform="scale(0.996264)"/>
      </g>
     </g>
    </g>
    <g id="xtick_4">
     <g id="line2d_4">
      <g>
       <use xlink:href="#m0eb89a74b9" x="325.596118" y="170.38737" style="stroke: #000000; stroke-width: 2"/>
      </g>
     </g>
     <g id="text_4">
      <!-- $\mathdefault{3}$ -->
      <g transform="translate(321.02707 197.724366) scale(0.2 -0.2)">
       <defs>
        <path id="CMR17-33" d="M 1414 2157 
C 1984 2157 2234 1662 2234 1090 
C 2234 320 1824 25 1453 25 
C 1114 25 563 194 390 693 
C 422 680 454 680 486 680 
C 640 680 755 782 755 948 
C 755 1133 614 1216 486 1216 
C 378 1216 211 1165 211 926 
C 211 335 787 -128 1466 -128 
C 2176 -128 2720 430 2720 1085 
C 2720 1707 2208 2157 1600 2227 
C 2086 2328 2554 2756 2554 3329 
C 2554 3820 2048 4179 1472 4179 
C 890 4179 378 3829 378 3329 
C 378 3110 544 3072 627 3072 
C 762 3072 877 3155 877 3321 
C 877 3486 762 3569 627 3569 
C 602 3569 570 3569 544 3557 
C 730 3959 1235 4032 1459 4032 
C 1683 4032 2106 3925 2106 3320 
C 2106 3143 2080 2828 1862 2550 
C 1670 2304 1453 2304 1242 2284 
C 1210 2284 1062 2269 1037 2269 
C 992 2263 966 2257 966 2208 
C 966 2163 973 2157 1101 2157 
L 1414 2157 
z
" transform="scale(0.015625)"/>
       </defs>
       <use xlink:href="#CMR17-33" transform="scale(0.996264)"/>
      </g>
     </g>
    </g>
    <g id="xtick_5">
     <g id="line2d_5">
      <g>
       <use xlink:href="#m0eb89a74b9" x="413.030952" y="170.38737" style="stroke: #000000; stroke-width: 2"/>
      </g>
     </g>
     <g id="text_5">
      <!-- $\mathdefault{4}$ -->
      <g transform="translate(408.461905 197.724366) scale(0.2 -0.2)">
       <defs>
        <path id="CMR17-34" d="M 2150 4122 
C 2150 4256 2144 4256 2029 4256 
L 128 1254 
L 128 1088 
L 1779 1088 
L 1779 457 
C 1779 224 1766 160 1318 160 
L 1197 160 
L 1197 0 
C 1402 0 1747 0 1965 0 
C 2182 0 2528 0 2733 0 
L 2733 160 
L 2611 160 
C 2163 160 2150 224 2150 457 
L 2150 1088 
L 2803 1088 
L 2803 1254 
L 2150 1254 
L 2150 4122 
z
M 1798 3703 
L 1798 1254 
L 256 1254 
L 1798 3703 
z
" transform="scale(0.015625)"/>
       </defs>
       <use xlink:href="#CMR17-34" transform="scale(0.996264)"/>
      </g>
     </g>
    </g>
   </g>
   <g id="matplotlib.axis_2">
    <g id="ytick_1">
     <g id="line2d_6">
      <defs>
       <path id="m56e9ca4fc0" d="M 0 0 
L -10 0 
" style="stroke: #000000; stroke-width: 2"/>
      </defs>
      <g>
       <use xlink:href="#m56e9ca4fc0" x="45.804649" y="137.85135" style="stroke: #000000; stroke-width: 2"/>
      </g>
     </g>
     <g id="text_6">
      <!-- $\mathdefault{10^{1}}$ -->
      <g transform="translate(7.2 144.769849) scale(0.2 -0.2)">
       <use xlink:href="#CMR17-31" transform="scale(0.996264)"/>
       <use xlink:href="#CMR17-30" transform="translate(45.690477 0) scale(0.996264)"/>
       <use xlink:href="#CMR17-31" transform="translate(91.380954 36.153639) scale(0.697382)"/>
      </g>
     </g>
    </g>
    <g id="ytick_2">
     <g id="line2d_7">
      <g>
       <use xlink:href="#m56e9ca4fc0" x="45.804649" y="75.984924" style="stroke: #000000; stroke-width: 2"/>
      </g>
     </g>
     <g id="text_7">
      <!-- $\mathdefault{10^{2}}$ -->
      <g transform="translate(7.2 82.903423) scale(0.2 -0.2)">
       <use xlink:href="#CMR17-31" transform="scale(0.996264)"/>
       <use xlink:href="#CMR17-30" transform="translate(45.690477 0) scale(0.996264)"/>
       <use xlink:href="#CMR17-32" transform="translate(91.380954 36.153639) scale(0.697382)"/>
      </g>
     </g>
    </g>
    <g id="ytick_3">
     <g id="line2d_8">
      <g>
       <use xlink:href="#m56e9ca4fc0" x="45.804649" y="14.118498" style="stroke: #000000; stroke-width: 2"/>
      </g>
     </g>
     <g id="text_8">
      <!-- $\mathdefault{10^{3}}$ -->
      <g transform="translate(7.2 21.036997) scale(0.2 -0.2)">
       <use xlink:href="#CMR17-31" transform="scale(0.996264)"/>
       <use xlink:href="#CMR17-30" transform="translate(45.690477 0) scale(0.996264)"/>
       <use xlink:href="#CMR17-33" transform="translate(91.380954 36.153639) scale(0.697382)"/>
      </g>
     </g>
    </g>
    <g id="ytick_4">
     <g id="line2d_9">
      <defs>
       <path id="m8c6384bc86" d="M 0 0 
L -5 0 
" style="stroke: #000000"/>
      </defs>
      <g>
       <use xlink:href="#m8c6384bc86" x="45.804649" y="170.199989" style="stroke: #000000"/>
      </g>
     </g>
    </g>
    <g id="ytick_5">
     <g id="line2d_10">
      <g>
       <use xlink:href="#m8c6384bc86" x="45.804649" y="162.470476" style="stroke: #000000"/>
      </g>
     </g>
    </g>
    <g id="ytick_6">
     <g id="line2d_11">
      <g>
       <use xlink:href="#m8c6384bc86" x="45.804649" y="156.475" style="stroke: #000000"/>
      </g>
     </g>
    </g>
    <g id="ytick_7">
     <g id="line2d_12">
      <g>
       <use xlink:href="#m8c6384bc86" x="45.804649" y="151.576339" style="stroke: #000000"/>
      </g>
     </g>
    </g>
    <g id="ytick_8">
     <g id="line2d_13">
      <g>
       <use xlink:href="#m8c6384bc86" x="45.804649" y="147.434581" style="stroke: #000000"/>
      </g>
     </g>
    </g>
    <g id="ytick_9">
     <g id="line2d_14">
      <g>
       <use xlink:href="#m8c6384bc86" x="45.804649" y="143.846826" style="stroke: #000000"/>
      </g>
     </g>
    </g>
    <g id="ytick_10">
     <g id="line2d_15">
      <g>
       <use xlink:href="#m8c6384bc86" x="45.804649" y="140.682203" style="stroke: #000000"/>
      </g>
     </g>
    </g>
    <g id="ytick_11">
     <g id="line2d_16">
      <g>
       <use xlink:href="#m8c6384bc86" x="45.804649" y="119.2277" style="stroke: #000000"/>
      </g>
     </g>
    </g>
    <g id="ytick_12">
     <g id="line2d_17">
      <g>
       <use xlink:href="#m8c6384bc86" x="45.804649" y="108.333563" style="stroke: #000000"/>
      </g>
     </g>
    </g>
    <g id="ytick_13">
     <g id="line2d_18">
      <g>
       <use xlink:href="#m8c6384bc86" x="45.804649" y="100.60405" style="stroke: #000000"/>
      </g>
     </g>
    </g>
    <g id="ytick_14">
     <g id="line2d_19">
      <g>
       <use xlink:href="#m8c6384bc86" x="45.804649" y="94.608574" style="stroke: #000000"/>
      </g>
     </g>
    </g>
    <g id="ytick_15">
     <g id="line2d_20">
      <g>
       <use xlink:href="#m8c6384bc86" x="45.804649" y="89.709913" style="stroke: #000000"/>
      </g>
     </g>
    </g>
    <g id="ytick_16">
     <g id="line2d_21">
      <g>
       <use xlink:href="#m8c6384bc86" x="45.804649" y="85.568155" style="stroke: #000000"/>
      </g>
     </g>
    </g>
    <g id="ytick_17">
     <g id="line2d_22">
      <g>
       <use xlink:href="#m8c6384bc86" x="45.804649" y="81.9804" style="stroke: #000000"/>
      </g>
     </g>
    </g>
    <g id="ytick_18">
     <g id="line2d_23">
      <g>
       <use xlink:href="#m8c6384bc86" x="45.804649" y="78.815777" style="stroke: #000000"/>
      </g>
     </g>
    </g>
    <g id="ytick_19">
     <g id="line2d_24">
      <g>
       <use xlink:href="#m8c6384bc86" x="45.804649" y="57.361274" style="stroke: #000000"/>
      </g>
     </g>
    </g>
    <g id="ytick_20">
     <g id="line2d_25">
      <g>
       <use xlink:href="#m8c6384bc86" x="45.804649" y="46.467138" style="stroke: #000000"/>
      </g>
     </g>
    </g>
    <g id="ytick_21">
     <g id="line2d_26">
      <g>
       <use xlink:href="#m8c6384bc86" x="45.804649" y="38.737624" style="stroke: #000000"/>
      </g>
     </g>
    </g>
    <g id="ytick_22">
     <g id="line2d_27">
      <g>
       <use xlink:href="#m8c6384bc86" x="45.804649" y="32.742148" style="stroke: #000000"/>
      </g>
     </g>
    </g>
    <g id="ytick_23">
     <g id="line2d_28">
      <g>
       <use xlink:href="#m8c6384bc86" x="45.804649" y="27.843488" style="stroke: #000000"/>
      </g>
     </g>
    </g>
    <g id="ytick_24">
     <g id="line2d_29">
      <g>
       <use xlink:href="#m8c6384bc86" x="45.804649" y="23.701729" style="stroke: #000000"/>
      </g>
     </g>
    </g>
    <g id="ytick_25">
     <g id="line2d_30">
      <g>
       <use xlink:href="#m8c6384bc86" x="45.804649" y="20.113975" style="stroke: #000000"/>
      </g>
     </g>
    </g>
    <g id="ytick_26">
     <g id="line2d_31">
      <g>
       <use xlink:href="#m8c6384bc86" x="45.804649" y="16.949351" style="stroke: #000000"/>
      </g>
     </g>
    </g>
   </g>
   <g id="line2d_32">
    <defs>
     <path id="m9199f69b02" d="M -5 5 
L 5 -5 
M -5 -5 
L 5 5 
" style="stroke: #800080"/>
    </defs>
    <g clip-path="url(#p6990705279)">
     <use xlink:href="#m9199f69b02" x="337.744958" y="33.31531" style="fill: #800080; stroke: #800080"/>
     <use xlink:href="#m9199f69b02" x="341.150315" y="53.264855" style="fill: #800080; stroke: #800080"/>
     <use xlink:href="#m9199f69b02" x="344.555672" y="52.139027" style="fill: #800080; stroke: #800080"/>
     <use xlink:href="#m9199f69b02" x="347.961028" y="68.270668" style="fill: #800080; stroke: #800080"/>
     <use xlink:href="#m9199f69b02" x="351.366385" y="69.572315" style="fill: #800080; stroke: #800080"/>
     <use xlink:href="#m9199f69b02" x="354.771742" y="76.049103" style="fill: #800080; stroke: #800080"/>
     <use xlink:href="#m9199f69b02" x="358.177098" y="87.773311" style="fill: #800080; stroke: #800080"/>
     <use xlink:href="#m9199f69b02" x="361.582455" y="90.296139" style="fill: #800080; stroke: #800080"/>
     <use xlink:href="#m9199f69b02" x="364.987812" y="102.075534" style="fill: #800080; stroke: #800080"/>
     <use xlink:href="#m9199f69b02" x="368.393169" y="102.247122" style="fill: #800080; stroke: #800080"/>
     <use xlink:href="#m9199f69b02" x="371.798525" y="110.036246" style="fill: #800080; stroke: #800080"/>
     <use xlink:href="#m9199f69b02" x="375.203882" y="115.738285" style="fill: #800080; stroke: #800080"/>
     <use xlink:href="#m9199f69b02" x="378.609239" y="126.386536" style="fill: #800080; stroke: #800080"/>
     <use xlink:href="#m9199f69b02" x="382.014595" y="125.094376" style="fill: #800080; stroke: #800080"/>
     <use xlink:href="#m9199f69b02" x="385.419952" y="127.355851" style="fill: #800080; stroke: #800080"/>
     <use xlink:href="#m9199f69b02" x="388.825309" y="134.057251" style="fill: #800080; stroke: #800080"/>
     <use xlink:href="#m9199f69b02" x="392.230665" y="131.65456" style="fill: #800080; stroke: #800080"/>
     <use xlink:href="#m9199f69b02" x="395.636022" y="137.248197" style="fill: #800080; stroke: #800080"/>
     <use xlink:href="#m9199f69b02" x="399.041379" y="138.760988" style="fill: #800080; stroke: #800080"/>
    </g>
   </g>
   <g id="line2d_33">
    <path d="M 337.744958 17.369622 
L 341.150315 26.774433 
L 344.555672 35.832188 
L 347.961028 44.528678 
L 351.366385 52.847662 
L 354.771742 60.770361 
L 358.177098 68.274797 
L 361.582455 75.334855 
L 364.987812 81.918966 
L 368.393169 87.988144 
L 371.798525 93.492996 
L 375.203882 98.368913 
L 378.609239 102.527878 
L 382.014595 105.843468 
L 385.419952 108.120518 
L 388.825309 109.024971 
L 392.230665 107.884864 
L 395.636022 102.883903 
L 399.041379 82.157219 
" clip-path="url(#p6990705279)" style="fill: none; stroke: #800080; stroke-width: 2; stroke-linecap: square"/>
   </g>
   <g id="line2d_34">
    <defs>
     <path id="m89d516ca6f" d="M -5 5 
L 5 -5 
M -5 -5 
L 5 5 
" style="stroke: #0000ff"/>
    </defs>
    <g clip-path="url(#p6990705279)">
     <use xlink:href="#m89d516ca6f" x="215.742096" y="32.70109" style="fill: #0000ff; stroke: #0000ff"/>
     <use xlink:href="#m89d516ca6f" x="224.709771" y="57.646299" style="fill: #0000ff; stroke: #0000ff"/>
     <use xlink:href="#m89d516ca6f" x="233.677446" y="72.210258" style="fill: #0000ff; stroke: #0000ff"/>
     <use xlink:href="#m89d516ca6f" x="242.645122" y="99.400332" style="fill: #0000ff; stroke: #0000ff"/>
     <use xlink:href="#m89d516ca6f" x="251.612797" y="111.266568" style="fill: #0000ff; stroke: #0000ff"/>
     <use xlink:href="#m89d516ca6f" x="260.580472" y="118.643865" style="fill: #0000ff; stroke: #0000ff"/>
     <use xlink:href="#m89d516ca6f" x="269.548148" y="131.645774" style="fill: #0000ff; stroke: #0000ff"/>
     <use xlink:href="#m89d516ca6f" x="278.515823" y="143.333743" style="fill: #0000ff; stroke: #0000ff"/>
     <use xlink:href="#m89d516ca6f" x="287.483498" y="150.679873" style="fill: #0000ff; stroke: #0000ff"/>
    </g>
   </g>
   <g id="line2d_35">
    <path d="M 215.742096 21.796291 
L 224.709771 43.369854 
L 233.677446 62.963106 
L 242.645122 80.356391 
L 251.612797 95.224647 
L 260.580472 107.035222 
L 269.548148 114.754274 
L 278.515823 115.56993 
L 287.483498 66.770983 
" clip-path="url(#p6990705279)" style="fill: none; stroke: #0000ff; stroke-width: 2; stroke-linecap: square"/>
   </g>
   <g id="line2d_36">
    <defs>
     <path id="me164770aaa" d="M -5 5 
L 5 -5 
M -5 -5 
L 5 5 
" style="stroke: #008000"/>
    </defs>
    <g clip-path="url(#p6990705279)">
     <use xlink:href="#me164770aaa" x="152.968369" y="43.33772" style="fill: #008000; stroke: #008000"/>
     <use xlink:href="#me164770aaa" x="161.936044" y="60.331913" style="fill: #008000; stroke: #008000"/>
     <use xlink:href="#me164770aaa" x="170.903719" y="70.854949" style="fill: #008000; stroke: #008000"/>
     <use xlink:href="#me164770aaa" x="179.871395" y="92.273009" style="fill: #008000; stroke: #008000"/>
     <use xlink:href="#me164770aaa" x="188.83907" y="115.399084" style="fill: #008000; stroke: #008000"/>
     <use xlink:href="#me164770aaa" x="197.806745" y="120.938407" style="fill: #008000; stroke: #008000"/>
     <use xlink:href="#me164770aaa" x="206.774421" y="133.473631" style="fill: #008000; stroke: #008000"/>
     <use xlink:href="#me164770aaa" x="215.742096" y="143.327105" style="fill: #008000; stroke: #008000"/>
     <use xlink:href="#me164770aaa" x="224.709771" y="144.539194" style="fill: #008000; stroke: #008000"/>
    </g>
   </g>
   <g id="line2d_37">
    <path d="M 152.968369 27.13639 
L 161.936044 47.047788 
L 170.903719 65.271111 
L 179.871395 81.651729 
L 188.83907 95.969003 
L 197.806745 107.883898 
L 206.774421 116.811972 
L 215.742096 121.525313 
L 224.709771 118.066568 
" clip-path="url(#p6990705279)" style="fill: none; stroke: #008000; stroke-width: 2; stroke-linecap: square"/>
   </g>
   <g id="line2d_38">
    <defs>
     <path id="m249f71cfc8" d="M -5 5 
L 5 -5 
M -5 -5 
L 5 5 
" style="stroke: #ffa500"/>
    </defs>
    <g clip-path="url(#p6990705279)">
     <use xlink:href="#m249f71cfc8" x="63.291616" y="41.096416" style="fill: #ffa500; stroke: #ffa500"/>
     <use xlink:href="#m249f71cfc8" x="72.259291" y="79.522682" style="fill: #ffa500; stroke: #ffa500"/>
     <use xlink:href="#m249f71cfc8" x="81.226966" y="92.393493" style="fill: #ffa500; stroke: #ffa500"/>
     <use xlink:href="#m249f71cfc8" x="90.194642" y="106.463201" style="fill: #ffa500; stroke: #ffa500"/>
     <use xlink:href="#m249f71cfc8" x="99.162317" y="124.667372" style="fill: #ffa500; stroke: #ffa500"/>
     <use xlink:href="#m249f71cfc8" x="108.129992" y="132.555126" style="fill: #ffa500; stroke: #ffa500"/>
     <use xlink:href="#m249f71cfc8" x="117.097668" y="143.886089" style="fill: #ffa500; stroke: #ffa500"/>
     <use xlink:href="#m249f71cfc8" x="126.065343" y="147.270228" style="fill: #ffa500; stroke: #ffa500"/>
     <use xlink:href="#m249f71cfc8" x="135.033018" y="152.465779" style="fill: #ffa500; stroke: #ffa500"/>
     <use xlink:href="#m249f71cfc8" x="144.000694" y="163.10081" style="fill: #ffa500; stroke: #ffa500"/>
    </g>
   </g>
   <g id="line2d_39">
    <path d="M 63.291616 60.456354 
L 72.259291 75.9734 
L 81.226966 90.070155 
L 90.194642 102.668098 
L 99.162317 113.640982 
L 108.129992 122.785236 
L 117.097668 129.752815 
L 126.065343 133.870244 
L 135.033018 133.469807 
L 144.000694 120.47404 
" clip-path="url(#p6990705279)" style="fill: none; stroke: #ffa500; stroke-width: 2; stroke-linecap: square"/>
   </g>
   <g id="patch_3">
    <path d="M 45.804649 170.38737 
L 45.804649 14.118498 
" style="fill: none; stroke: #000000; stroke-linejoin: miter; stroke-linecap: square"/>
   </g>
   <g id="patch_4">
    <path d="M 413.030952 170.38737 
L 413.030952 14.118498 
" style="fill: none; stroke: #000000; stroke-linejoin: miter; stroke-linecap: square"/>
   </g>
   <g id="patch_5">
    <path d="M 45.804649 170.38737 
L 413.030952 170.38737 
" style="fill: none; stroke: #000000; stroke-linejoin: miter; stroke-linecap: square"/>
   </g>
   <g id="patch_6">
    <path d="M 45.804649 14.118498 
L 413.030952 14.118498 
" style="fill: none; stroke: #000000; stroke-linejoin: miter; stroke-linecap: square"/>
   </g>
  </g>
 </g>
 <defs>
  <clipPath id="p6990705279">
   <rect x="45.804649" y="14.118498" width="367.226303" height="156.268871"/>
  </clipPath>
 </defs>
</svg>
