<?xml version="1.0" encoding="utf-8" standalone="no"?>
<!DOCTYPE svg PUBLIC "-//W3C//DTD SVG 1.1//EN"
  "http://www.w3.org/Graphics/SVG/1.1/DTD/svg11.dtd">
<svg xmlns:xlink="http://www.w3.org/1999/xlink" width="424.8pt" height="208.8pt" viewBox="0 0 424.8 208.8" xmlns="http://www.w3.org/2000/svg" version="1.1">
 <metadata>
  <rdf:RDF xmlns:dc="http://purl.org/dc/elements/1.1/" xmlns:cc="http://creativecommons.org/ns#" xmlns:rdf="http://www.w3.org/1999/02/22-rdf-syntax-ns#">
   <cc:Work>
    <dc:type rdf:resource="http://purl.org/dc/dcmitype/StillImage"/>
    <dc:date>2024-11-21T21:32:50.232811</dc:date>
    <dc:format>image/svg+xml</dc:format>
    <dc:creator>
     <cc:Agent>
      <dc:title>Matplotlib v3.7.2, https://matplotlib.org/</dc:title>
     </cc:Agent>
    </dc:creator>
   </cc:Work>
  </rdf:RDF>
 </metadata>
 <defs>
  <style type="text/css">*{stroke-linejoin: round; stroke-linecap: butt}</style>
 </defs>
 <g id="figure_1">
  <g id="patch_1">
   <path d="M -0 208.8 
L 424.8 208.8 
L 424.8 0 
L -0 0 
z
" style="fill: #ffffff"/>
  </g>
  <g id="axes_1">
   <g id="patch_2">
    <path d="M 45.804649 170.38737 
L 413.030952 170.38737 
L 413.030952 14.118498 
L 45.804649 14.118498 
z
" style="fill: #ffffff"/>
   </g>
   <g id="matplotlib.axis_1">
    <g id="xtick_1">
     <g id="line2d_1">
      <defs>
       <path id="me81f236ba9" d="M 0 0 
L 0 10 
" style="stroke: #000000; stroke-width: 2"/>
      </defs>
      <g>
       <use xlink:href="#me81f236ba9" x="63.291616" y="170.38737" style="stroke: #000000; stroke-width: 2"/>
      </g>
     </g>
     <g id="text_1">
      <!-- $\mathdefault{0}$ -->
      <g transform="translate(58.722568 197.724366) scale(0.2 -0.2)">
       <defs>
        <path id="CMR17-30" d="M 2688 2025 
C 2688 2416 2682 3080 2413 3591 
C 2176 4039 1798 4198 1466 4198 
C 1158 4198 768 4058 525 3597 
C 269 3118 243 2524 243 2025 
C 243 1661 250 1106 448 619 
C 723 -39 1216 -128 1466 -128 
C 1760 -128 2208 -7 2470 600 
C 2662 1042 2688 1559 2688 2025 
z
M 1466 -26 
C 1056 -26 813 325 723 812 
C 653 1188 653 1738 653 2096 
C 653 2588 653 2997 736 3387 
C 858 3929 1216 4096 1466 4096 
C 1728 4096 2067 3923 2189 3400 
C 2272 3036 2278 2607 2278 2096 
C 2278 1680 2278 1169 2202 792 
C 2067 95 1690 -26 1466 -26 
z
" transform="scale(0.015625)"/>
       </defs>
       <use xlink:href="#CMR17-30" transform="scale(0.996264)"/>
      </g>
     </g>
    </g>
    <g id="xtick_2">
     <g id="line2d_2">
      <g>
       <use xlink:href="#me81f236ba9" x="150.72645" y="170.38737" style="stroke: #000000; stroke-width: 2"/>
      </g>
     </g>
     <g id="text_2">
      <!-- $\mathdefault{1}$ -->
      <g transform="translate(146.157402 197.724366) scale(0.2 -0.2)">
       <defs>
        <path id="CMR17-31" d="M 1702 4058 
C 1702 4192 1696 4192 1606 4192 
C 1357 3916 979 3827 621 3827 
C 602 3827 570 3827 563 3808 
C 557 3795 557 3782 557 3648 
C 755 3648 1088 3686 1344 3839 
L 1344 461 
C 1344 236 1331 160 781 160 
L 589 160 
L 589 0 
C 896 0 1216 0 1523 0 
C 1830 0 2150 0 2458 0 
L 2458 160 
L 2266 160 
C 1715 160 1702 230 1702 458 
L 1702 4058 
z
" transform="scale(0.015625)"/>
       </defs>
       <use xlink:href="#CMR17-31" transform="scale(0.996264)"/>
      </g>
     </g>
    </g>
    <g id="xtick_3">
     <g id="line2d_3">
      <g>
       <use xlink:href="#me81f236ba9" x="238.161284" y="170.38737" style="stroke: #000000; stroke-width: 2"/>
      </g>
     </g>
     <g id="text_3">
      <!-- $\mathdefault{2}$ -->
      <g transform="translate(233.592236 197.724366) scale(0.2 -0.2)">
       <defs>
        <path id="CMR17-32" d="M 2669 989 
L 2554 989 
C 2490 536 2438 459 2413 420 
C 2381 369 1920 369 1830 369 
L 602 369 
C 832 619 1280 1072 1824 1597 
C 2214 1967 2669 2402 2669 3035 
C 2669 3790 2067 4224 1395 4224 
C 691 4224 262 3604 262 3030 
C 262 2780 448 2748 525 2748 
C 589 2748 781 2787 781 3010 
C 781 3207 614 3264 525 3264 
C 486 3264 448 3258 422 3245 
C 544 3790 915 4058 1306 4058 
C 1862 4058 2227 3617 2227 3035 
C 2227 2479 1901 2000 1536 1584 
L 262 146 
L 262 0 
L 2515 0 
L 2669 989 
z
" transform="scale(0.015625)"/>
       </defs>
       <use xlink:href="#CMR17-32" transform="scale(0.996264)"/>
      </g>
     </g>
    </g>
    <g id="xtick_4">
     <g id="line2d_4">
      <g>
       <use xlink:href="#me81f236ba9" x="325.596118" y="170.38737" style="stroke: #000000; stroke-width: 2"/>
      </g>
     </g>
     <g id="text_4">
      <!-- $\mathdefault{3}$ -->
      <g transform="translate(321.02707 197.724366) scale(0.2 -0.2)">
       <defs>
        <path id="CMR17-33" d="M 1414 2157 
C 1984 2157 2234 1662 2234 1090 
C 2234 320 1824 25 1453 25 
C 1114 25 563 194 390 693 
C 422 680 454 680 486 680 
C 640 680 755 782 755 948 
C 755 1133 614 1216 486 1216 
C 378 1216 211 1165 211 926 
C 211 335 787 -128 1466 -128 
C 2176 -128 2720 430 2720 1085 
C 2720 1707 2208 2157 1600 2227 
C 2086 2328 2554 2756 2554 3329 
C 2554 3820 2048 4179 1472 4179 
C 890 4179 378 3829 378 3329 
C 378 3110 544 3072 627 3072 
C 762 3072 877 3155 877 3321 
C 877 3486 762 3569 627 3569 
C 602 3569 570 3569 544 3557 
C 730 3959 1235 4032 1459 4032 
C 1683 4032 2106 3925 2106 3320 
C 2106 3143 2080 2828 1862 2550 
C 1670 2304 1453 2304 1242 2284 
C 1210 2284 1062 2269 1037 2269 
C 992 2263 966 2257 966 2208 
C 966 2163 973 2157 1101 2157 
L 1414 2157 
z
" transform="scale(0.015625)"/>
       </defs>
       <use xlink:href="#CMR17-33" transform="scale(0.996264)"/>
      </g>
     </g>
    </g>
    <g id="xtick_5">
     <g id="line2d_5">
      <g>
       <use xlink:href="#me81f236ba9" x="413.030952" y="170.38737" style="stroke: #000000; stroke-width: 2"/>
      </g>
     </g>
     <g id="text_5">
      <!-- $\mathdefault{4}$ -->
      <g transform="translate(408.461905 197.724366) scale(0.2 -0.2)">
       <defs>
        <path id="CMR17-34" d="M 2150 4122 
C 2150 4256 2144 4256 2029 4256 
L 128 1254 
L 128 1088 
L 1779 1088 
L 1779 457 
C 1779 224 1766 160 1318 160 
L 1197 160 
L 1197 0 
C 1402 0 1747 0 1965 0 
C 2182 0 2528 0 2733 0 
L 2733 160 
L 2611 160 
C 2163 160 2150 224 2150 457 
L 2150 1088 
L 2803 1088 
L 2803 1254 
L 2150 1254 
L 2150 4122 
z
M 1798 3703 
L 1798 1254 
L 256 1254 
L 1798 3703 
z
" transform="scale(0.015625)"/>
       </defs>
       <use xlink:href="#CMR17-34" transform="scale(0.996264)"/>
      </g>
     </g>
    </g>
   </g>
   <g id="matplotlib.axis_2">
    <g id="ytick_1">
     <g id="line2d_6">
      <defs>
       <path id="mff21a91fe2" d="M 0 0 
L -10 0 
" style="stroke: #000000; stroke-width: 2"/>
      </defs>
      <g>
       <use xlink:href="#mff21a91fe2" x="45.804649" y="138.461311" style="stroke: #000000; stroke-width: 2"/>
      </g>
     </g>
     <g id="text_6">
      <!-- $\mathdefault{10^{1}}$ -->
      <g transform="translate(7.2 145.379809) scale(0.2 -0.2)">
       <use xlink:href="#CMR17-31" transform="scale(0.996264)"/>
       <use xlink:href="#CMR17-30" transform="translate(45.690477 0) scale(0.996264)"/>
       <use xlink:href="#CMR17-31" transform="translate(91.380954 36.153639) scale(0.697382)"/>
      </g>
     </g>
    </g>
    <g id="ytick_2">
     <g id="line2d_7">
      <g>
       <use xlink:href="#mff21a91fe2" x="45.804649" y="76.289905" style="stroke: #000000; stroke-width: 2"/>
      </g>
     </g>
     <g id="text_7">
      <!-- $\mathdefault{10^{2}}$ -->
      <g transform="translate(7.2 83.208403) scale(0.2 -0.2)">
       <use xlink:href="#CMR17-31" transform="scale(0.996264)"/>
       <use xlink:href="#CMR17-30" transform="translate(45.690477 0) scale(0.996264)"/>
       <use xlink:href="#CMR17-32" transform="translate(91.380954 36.153639) scale(0.697382)"/>
      </g>
     </g>
    </g>
    <g id="ytick_3">
     <g id="line2d_8">
      <g>
       <use xlink:href="#mff21a91fe2" x="45.804649" y="14.118498" style="stroke: #000000; stroke-width: 2"/>
      </g>
     </g>
     <g id="text_8">
      <!-- $\mathdefault{10^{3}}$ -->
      <g transform="translate(7.2 21.036997) scale(0.2 -0.2)">
       <use xlink:href="#CMR17-31" transform="scale(0.996264)"/>
       <use xlink:href="#CMR17-30" transform="translate(45.690477 0) scale(0.996264)"/>
       <use xlink:href="#CMR17-33" transform="translate(91.380954 36.153639) scale(0.697382)"/>
      </g>
     </g>
    </g>
    <g id="ytick_4">
     <g id="line2d_9">
      <defs>
       <path id="mee0e498843" d="M 0 0 
L -5 0 
" style="stroke: #000000"/>
      </defs>
      <g>
       <use xlink:href="#mee0e498843" x="45.804649" y="163.201801" style="stroke: #000000"/>
      </g>
     </g>
    </g>
    <g id="ytick_5">
     <g id="line2d_10">
      <g>
       <use xlink:href="#mee0e498843" x="45.804649" y="157.176769" style="stroke: #000000"/>
      </g>
     </g>
    </g>
    <g id="ytick_6">
     <g id="line2d_11">
      <g>
       <use xlink:href="#mee0e498843" x="45.804649" y="152.25396" style="stroke: #000000"/>
      </g>
     </g>
    </g>
    <g id="ytick_7">
     <g id="line2d_12">
      <g>
       <use xlink:href="#mee0e498843" x="45.804649" y="148.091784" style="stroke: #000000"/>
      </g>
     </g>
    </g>
    <g id="ytick_8">
     <g id="line2d_13">
      <g>
       <use xlink:href="#mee0e498843" x="45.804649" y="144.486343" style="stroke: #000000"/>
      </g>
     </g>
    </g>
    <g id="ytick_9">
     <g id="line2d_14">
      <g>
       <use xlink:href="#mee0e498843" x="45.804649" y="141.306119" style="stroke: #000000"/>
      </g>
     </g>
    </g>
    <g id="ytick_10">
     <g id="line2d_15">
      <g>
       <use xlink:href="#mee0e498843" x="45.804649" y="119.745853" style="stroke: #000000"/>
      </g>
     </g>
    </g>
    <g id="ytick_11">
     <g id="line2d_16">
      <g>
       <use xlink:href="#mee0e498843" x="45.804649" y="108.798012" style="stroke: #000000"/>
      </g>
     </g>
    </g>
    <g id="ytick_12">
     <g id="line2d_17">
      <g>
       <use xlink:href="#mee0e498843" x="45.804649" y="101.030395" style="stroke: #000000"/>
      </g>
     </g>
    </g>
    <g id="ytick_13">
     <g id="line2d_18">
      <g>
       <use xlink:href="#mee0e498843" x="45.804649" y="95.005363" style="stroke: #000000"/>
      </g>
     </g>
    </g>
    <g id="ytick_14">
     <g id="line2d_19">
      <g>
       <use xlink:href="#mee0e498843" x="45.804649" y="90.082553" style="stroke: #000000"/>
      </g>
     </g>
    </g>
    <g id="ytick_15">
     <g id="line2d_20">
      <g>
       <use xlink:href="#mee0e498843" x="45.804649" y="85.920377" style="stroke: #000000"/>
      </g>
     </g>
    </g>
    <g id="ytick_16">
     <g id="line2d_21">
      <g>
       <use xlink:href="#mee0e498843" x="45.804649" y="82.314936" style="stroke: #000000"/>
      </g>
     </g>
    </g>
    <g id="ytick_17">
     <g id="line2d_22">
      <g>
       <use xlink:href="#mee0e498843" x="45.804649" y="79.134712" style="stroke: #000000"/>
      </g>
     </g>
    </g>
    <g id="ytick_18">
     <g id="line2d_23">
      <g>
       <use xlink:href="#mee0e498843" x="45.804649" y="57.574447" style="stroke: #000000"/>
      </g>
     </g>
    </g>
    <g id="ytick_19">
     <g id="line2d_24">
      <g>
       <use xlink:href="#mee0e498843" x="45.804649" y="46.626605" style="stroke: #000000"/>
      </g>
     </g>
    </g>
    <g id="ytick_20">
     <g id="line2d_25">
      <g>
       <use xlink:href="#mee0e498843" x="45.804649" y="38.858988" style="stroke: #000000"/>
      </g>
     </g>
    </g>
    <g id="ytick_21">
     <g id="line2d_26">
      <g>
       <use xlink:href="#mee0e498843" x="45.804649" y="32.833957" style="stroke: #000000"/>
      </g>
     </g>
    </g>
    <g id="ytick_22">
     <g id="line2d_27">
      <g>
       <use xlink:href="#mee0e498843" x="45.804649" y="27.911147" style="stroke: #000000"/>
      </g>
     </g>
    </g>
    <g id="ytick_23">
     <g id="line2d_28">
      <g>
       <use xlink:href="#mee0e498843" x="45.804649" y="23.748971" style="stroke: #000000"/>
      </g>
     </g>
    </g>
    <g id="ytick_24">
     <g id="line2d_29">
      <g>
       <use xlink:href="#mee0e498843" x="45.804649" y="20.14353" style="stroke: #000000"/>
      </g>
     </g>
    </g>
    <g id="ytick_25">
     <g id="line2d_30">
      <g>
       <use xlink:href="#mee0e498843" x="45.804649" y="16.963306" style="stroke: #000000"/>
      </g>
     </g>
    </g>
   </g>
   <g id="line2d_31">
    <defs>
     <path id="m3bd826b0eb" d="M -5 5 
L 5 -5 
M -5 -5 
L 5 5 
" style="stroke: #800080"/>
    </defs>
    <g clip-path="url(#p3be3a13639)">
     <use xlink:href="#m3bd826b0eb" x="337.744958" y="33.409944" style="fill: #800080; stroke: #800080"/>
     <use xlink:href="#m3bd826b0eb" x="341.150315" y="53.457833" style="fill: #800080; stroke: #800080"/>
     <use xlink:href="#m3bd826b0eb" x="344.555672" y="52.326455" style="fill: #800080; stroke: #800080"/>
     <use xlink:href="#m3bd826b0eb" x="347.961028" y="68.53762" style="fill: #800080; stroke: #800080"/>
     <use xlink:href="#m3bd826b0eb" x="351.366385" y="69.845683" style="fill: #800080; stroke: #800080"/>
     <use xlink:href="#m3bd826b0eb" x="354.771742" y="76.3544" style="fill: #800080; stroke: #800080"/>
     <use xlink:href="#m3bd826b0eb" x="358.177098" y="88.136405" style="fill: #800080; stroke: #800080"/>
     <use xlink:href="#m3bd826b0eb" x="361.582455" y="90.671669" style="fill: #800080; stroke: #800080"/>
     <use xlink:href="#m3bd826b0eb" x="364.987812" y="102.509132" style="fill: #800080; stroke: #800080"/>
     <use xlink:href="#m3bd826b0eb" x="368.393169" y="102.681566" style="fill: #800080; stroke: #800080"/>
     <use xlink:href="#m3bd826b0eb" x="371.798525" y="110.509088" style="fill: #800080; stroke: #800080"/>
     <use xlink:href="#m3bd826b0eb" x="375.203882" y="116.239236" style="fill: #800080; stroke: #800080"/>
     <use xlink:href="#m3bd826b0eb" x="378.609239" y="126.939979" style="fill: #800080; stroke: #800080"/>
     <use xlink:href="#m3bd826b0eb" x="382.014595" y="125.641449" style="fill: #800080; stroke: #800080"/>
     <use xlink:href="#m3bd826b0eb" x="385.419952" y="127.914072" style="fill: #800080; stroke: #800080"/>
     <use xlink:href="#m3bd826b0eb" x="388.825309" y="134.648508" style="fill: #800080; stroke: #800080"/>
     <use xlink:href="#m3bd826b0eb" x="392.230665" y="132.233972" style="fill: #800080; stroke: #800080"/>
     <use xlink:href="#m3bd826b0eb" x="395.636022" y="137.855185" style="fill: #800080; stroke: #800080"/>
     <use xlink:href="#m3bd826b0eb" x="399.041379" y="139.375433" style="fill: #800080; stroke: #800080"/>
    </g>
   </g>
   <g id="line2d_32">
    <path d="M 337.744958 46.358754 
L 341.150315 54.825118 
L 344.555672 62.857701 
L 347.961028 70.449302 
L 351.366385 77.596931 
L 354.771742 84.302399 
L 358.177098 90.572594 
L 361.582455 96.419403 
L 364.987812 101.859286 
L 368.393169 106.912557 
L 371.798525 111.602467 
L 375.203882 115.954201 
L 378.609239 119.993899 
L 382.014595 123.747777 
L 385.419952 127.241406 
L 388.825309 130.49917 
L 392.230665 133.543891 
L 395.636022 136.396612 
L 399.041379 139.07651 
" clip-path="url(#p3be3a13639)" style="fill: none; stroke: #800080; stroke-width: 2; stroke-linecap: square"/>
   </g>
   <g id="line2d_33">
    <defs>
     <path id="m6f7a61905d" d="M -5 5 
L 5 -5 
M -5 -5 
L 5 5 
" style="stroke: #0000ff"/>
    </defs>
    <g clip-path="url(#p3be3a13639)">
     <use xlink:href="#m6f7a61905d" x="215.742096" y="32.792696" style="fill: #0000ff; stroke: #0000ff"/>
     <use xlink:href="#m6f7a61905d" x="224.709771" y="57.860876" style="fill: #0000ff; stroke: #0000ff"/>
     <use xlink:href="#m6f7a61905d" x="233.677446" y="72.496631" style="fill: #0000ff; stroke: #0000ff"/>
     <use xlink:href="#m6f7a61905d" x="242.645122" y="99.820742" style="fill: #0000ff; stroke: #0000ff"/>
     <use xlink:href="#m6f7a61905d" x="251.612797" y="111.745475" style="fill: #0000ff; stroke: #0000ff"/>
     <use xlink:href="#m6f7a61905d" x="260.580472" y="119.159139" style="fill: #0000ff; stroke: #0000ff"/>
     <use xlink:href="#m6f7a61905d" x="269.548148" y="132.225143" style="fill: #0000ff; stroke: #0000ff"/>
     <use xlink:href="#m6f7a61905d" x="278.515823" y="143.97073" style="fill: #0000ff; stroke: #0000ff"/>
     <use xlink:href="#m6f7a61905d" x="287.483498" y="151.353074" style="fill: #0000ff; stroke: #0000ff"/>
    </g>
   </g>
   <g id="line2d_34">
    <path d="M 215.742096 39.335292 
L 224.709771 58.822099 
L 233.677446 76.231014 
L 242.645122 91.592832 
L 251.612797 105.010588 
L 260.580472 116.655733 
L 269.548148 126.74671 
L 278.515823 135.519528 
L 287.483498 143.201525 
" clip-path="url(#p3be3a13639)" style="fill: none; stroke: #0000ff; stroke-width: 2; stroke-linecap: square"/>
   </g>
   <g id="line2d_35">
    <defs>
     <path id="meedea0332e" d="M -5 5 
L 5 -5 
M -5 -5 
L 5 5 
" style="stroke: #008000"/>
    </defs>
    <g clip-path="url(#p3be3a13639)">
     <use xlink:href="#meedea0332e" x="152.968369" y="43.481761" style="fill: #008000; stroke: #008000"/>
     <use xlink:href="#meedea0332e" x="161.936044" y="60.559729" style="fill: #008000; stroke: #008000"/>
     <use xlink:href="#meedea0332e" x="170.903719" y="71.13464" style="fill: #008000; stroke: #008000"/>
     <use xlink:href="#meedea0332e" x="179.871395" y="92.658284" style="fill: #008000; stroke: #008000"/>
     <use xlink:href="#meedea0332e" x="188.83907" y="115.898363" style="fill: #008000; stroke: #008000"/>
     <use xlink:href="#meedea0332e" x="197.806745" y="121.464992" style="fill: #008000; stroke: #008000"/>
     <use xlink:href="#meedea0332e" x="206.774421" y="134.062011" style="fill: #008000; stroke: #008000"/>
     <use xlink:href="#meedea0332e" x="215.742096" y="143.96406" style="fill: #008000; stroke: #008000"/>
     <use xlink:href="#meedea0332e" x="224.709771" y="145.182124" style="fill: #008000; stroke: #008000"/>
    </g>
   </g>
   <g id="line2d_36">
    <path d="M 152.968369 40.603862 
L 161.936044 58.905752 
L 170.903719 75.381149 
L 179.871395 90.099314 
L 188.83907 103.170324 
L 197.806745 114.741172 
L 206.774421 124.984173 
L 215.742096 134.08171 
L 224.709771 142.211949 
" clip-path="url(#p3be3a13639)" style="fill: none; stroke: #008000; stroke-width: 2; stroke-linecap: square"/>
   </g>
   <g id="line2d_37">
    <defs>
     <path id="m449913d62a" d="M -5 5 
L 5 -5 
M -5 -5 
L 5 5 
" style="stroke: #ffa500"/>
    </defs>
    <g clip-path="url(#p3be3a13639)">
     <use xlink:href="#m449913d62a" x="63.291616" y="41.229408" style="fill: #ffa500; stroke: #ffa500"/>
     <use xlink:href="#m449913d62a" x="72.259291" y="79.845102" style="fill: #ffa500; stroke: #ffa500"/>
     <use xlink:href="#m449913d62a" x="81.226966" y="92.779362" style="fill: #ffa500; stroke: #ffa500"/>
     <use xlink:href="#m449913d62a" x="90.194642" y="106.918429" style="fill: #ffa500; stroke: #ffa500"/>
     <use xlink:href="#m449913d62a" x="99.162317" y="125.21234" style="fill: #ffa500; stroke: #ffa500"/>
     <use xlink:href="#m449913d62a" x="108.129992" y="133.138979" style="fill: #ffa500; stroke: #ffa500"/>
     <use xlink:href="#m449913d62a" x="117.097668" y="144.525799" style="fill: #ffa500; stroke: #ffa500"/>
     <use xlink:href="#m449913d62a" x="126.065343" y="147.926621" style="fill: #ffa500; stroke: #ffa500"/>
     <use xlink:href="#m449913d62a" x="135.033018" y="153.147784" style="fill: #ffa500; stroke: #ffa500"/>
     <use xlink:href="#m449913d62a" x="144.000694" y="163.835242" style="fill: #ffa500; stroke: #ffa500"/>
    </g>
   </g>
   <g id="line2d_38">
    <path d="M 63.291616 59.344575 
L 72.259291 75.661942 
L 81.226966 90.194468 
L 90.194642 103.144927 
L 99.162317 114.721963 
L 108.129992 125.132412 
L 117.097668 134.574551 
L 126.065343 143.234079 
L 135.033018 151.283579 
L 144.000694 158.885641 
" clip-path="url(#p3be3a13639)" style="fill: none; stroke: #ffa500; stroke-width: 2; stroke-linecap: square"/>
   </g>
   <g id="patch_3">
    <path d="M 45.804649 170.38737 
L 45.804649 14.118498 
" style="fill: none; stroke: #000000; stroke-linejoin: miter; stroke-linecap: square"/>
   </g>
   <g id="patch_4">
    <path d="M 413.030952 170.38737 
L 413.030952 14.118498 
" style="fill: none; stroke: #000000; stroke-linejoin: miter; stroke-linecap: square"/>
   </g>
   <g id="patch_5">
    <path d="M 45.804649 170.38737 
L 413.030952 170.38737 
" style="fill: none; stroke: #000000; stroke-linejoin: miter; stroke-linecap: square"/>
   </g>
   <g id="patch_6">
    <path d="M 45.804649 14.118498 
L 413.030952 14.118498 
" style="fill: none; stroke: #000000; stroke-linejoin: miter; stroke-linecap: square"/>
   </g>
  </g>
 </g>
 <defs>
  <clipPath id="p3be3a13639">
   <rect x="45.804649" y="14.118498" width="367.226303" height="156.268871"/>
  </clipPath>
 </defs>
</svg>
