<?xml version="1.0" encoding="utf-8" standalone="no"?>
<!DOCTYPE svg PUBLIC "-//W3C//DTD SVG 1.1//EN"
  "http://www.w3.org/Graphics/SVG/1.1/DTD/svg11.dtd">
<svg xmlns:xlink="http://www.w3.org/1999/xlink" width="453.449249pt" height="338.4pt" viewBox="0 0 453.449249 338.4" xmlns="http://www.w3.org/2000/svg" version="1.1">
 <metadata>
  <rdf:RDF xmlns:dc="http://purl.org/dc/elements/1.1/" xmlns:cc="http://creativecommons.org/ns#" xmlns:rdf="http://www.w3.org/1999/02/22-rdf-syntax-ns#">
   <cc:Work>
    <dc:type rdf:resource="http://purl.org/dc/dcmitype/StillImage"/>
    <dc:date>2024-11-20T23:11:38.872753</dc:date>
    <dc:format>image/svg+xml</dc:format>
    <dc:creator>
     <cc:Agent>
      <dc:title>Matplotlib v3.7.2, https://matplotlib.org/</dc:title>
     </cc:Agent>
    </dc:creator>
   </cc:Work>
  </rdf:RDF>
 </metadata>
 <defs>
  <style type="text/css">*{stroke-linejoin: round; stroke-linecap: butt}</style>
 </defs>
 <g id="figure_1">
  <g id="patch_1">
   <path d="M 0 338.4 
L 453.449249 338.4 
L 453.449249 0 
L 0 0 
z
" style="fill: #ffffff"/>
  </g>
  <g id="axes_1">
   <g id="patch_2">
    <path d="M 67.517279 278.274739 
L 444.536407 278.274739 
L 444.536407 7.2 
L 67.517279 7.2 
z
" style="fill: #ffffff"/>
   </g>
   <g id="matplotlib.axis_1">
    <g id="xtick_1">
     <g id="line2d_1">
      <defs>
       <path id="md98f8e51a8" d="M 0 0 
L 0 10 
" style="stroke: #000000; stroke-width: 3"/>
      </defs>
      <g>
       <use xlink:href="#md98f8e51a8" x="84.654513" y="278.274739" style="stroke: #000000; stroke-width: 3"/>
      </g>
     </g>
     <g id="text_1">
      <!-- $\mathdefault{0}$ -->
      <g transform="translate(80.085465 305.611736) scale(0.2 -0.2)">
       <defs>
        <path id="CMR17-30" d="M 2688 2025 
C 2688 2416 2682 3080 2413 3591 
C 2176 4039 1798 4198 1466 4198 
C 1158 4198 768 4058 525 3597 
C 269 3118 243 2524 243 2025 
C 243 1661 250 1106 448 619 
C 723 -39 1216 -128 1466 -128 
C 1760 -128 2208 -7 2470 600 
C 2662 1042 2688 1559 2688 2025 
z
M 1466 -26 
C 1056 -26 813 325 723 812 
C 653 1188 653 1738 653 2096 
C 653 2588 653 2997 736 3387 
C 858 3929 1216 4096 1466 4096 
C 1728 4096 2067 3923 2189 3400 
C 2272 3036 2278 2607 2278 2096 
C 2278 1680 2278 1169 2202 792 
C 2067 95 1690 -26 1466 -26 
z
" transform="scale(0.015625)"/>
       </defs>
       <use xlink:href="#CMR17-30" transform="scale(0.996264)"/>
      </g>
     </g>
    </g>
    <g id="xtick_2">
     <g id="line2d_2">
      <g>
       <use xlink:href="#md98f8e51a8" x="173.910935" y="278.274739" style="stroke: #000000; stroke-width: 3"/>
      </g>
     </g>
     <g id="text_2">
      <!-- $\mathdefault{1}$ -->
      <g transform="translate(169.341887 305.611736) scale(0.2 -0.2)">
       <defs>
        <path id="CMR17-31" d="M 1702 4058 
C 1702 4192 1696 4192 1606 4192 
C 1357 3916 979 3827 621 3827 
C 602 3827 570 3827 563 3808 
C 557 3795 557 3782 557 3648 
C 755 3648 1088 3686 1344 3839 
L 1344 461 
C 1344 236 1331 160 781 160 
L 589 160 
L 589 0 
C 896 0 1216 0 1523 0 
C 1830 0 2150 0 2458 0 
L 2458 160 
L 2266 160 
C 1715 160 1702 230 1702 458 
L 1702 4058 
z
" transform="scale(0.015625)"/>
       </defs>
       <use xlink:href="#CMR17-31" transform="scale(0.996264)"/>
      </g>
     </g>
    </g>
    <g id="xtick_3">
     <g id="line2d_3">
      <g>
       <use xlink:href="#md98f8e51a8" x="263.167357" y="278.274739" style="stroke: #000000; stroke-width: 3"/>
      </g>
     </g>
     <g id="text_3">
      <!-- $\mathdefault{2}$ -->
      <g transform="translate(258.598309 305.611736) scale(0.2 -0.2)">
       <defs>
        <path id="CMR17-32" d="M 2669 989 
L 2554 989 
C 2490 536 2438 459 2413 420 
C 2381 369 1920 369 1830 369 
L 602 369 
C 832 619 1280 1072 1824 1597 
C 2214 1967 2669 2402 2669 3035 
C 2669 3790 2067 4224 1395 4224 
C 691 4224 262 3604 262 3030 
C 262 2780 448 2748 525 2748 
C 589 2748 781 2787 781 3010 
C 781 3207 614 3264 525 3264 
C 486 3264 448 3258 422 3245 
C 544 3790 915 4058 1306 4058 
C 1862 4058 2227 3617 2227 3035 
C 2227 2479 1901 2000 1536 1584 
L 262 146 
L 262 0 
L 2515 0 
L 2669 989 
z
" transform="scale(0.015625)"/>
       </defs>
       <use xlink:href="#CMR17-32" transform="scale(0.996264)"/>
      </g>
     </g>
    </g>
    <g id="xtick_4">
     <g id="line2d_4">
      <g>
       <use xlink:href="#md98f8e51a8" x="352.423779" y="278.274739" style="stroke: #000000; stroke-width: 3"/>
      </g>
     </g>
     <g id="text_4">
      <!-- $\mathdefault{3}$ -->
      <g transform="translate(347.854731 305.611736) scale(0.2 -0.2)">
       <defs>
        <path id="CMR17-33" d="M 1414 2157 
C 1984 2157 2234 1662 2234 1090 
C 2234 320 1824 25 1453 25 
C 1114 25 563 194 390 693 
C 422 680 454 680 486 680 
C 640 680 755 782 755 948 
C 755 1133 614 1216 486 1216 
C 378 1216 211 1165 211 926 
C 211 335 787 -128 1466 -128 
C 2176 -128 2720 430 2720 1085 
C 2720 1707 2208 2157 1600 2227 
C 2086 2328 2554 2756 2554 3329 
C 2554 3820 2048 4179 1472 4179 
C 890 4179 378 3829 378 3329 
C 378 3110 544 3072 627 3072 
C 762 3072 877 3155 877 3321 
C 877 3486 762 3569 627 3569 
C 602 3569 570 3569 544 3557 
C 730 3959 1235 4032 1459 4032 
C 1683 4032 2106 3925 2106 3320 
C 2106 3143 2080 2828 1862 2550 
C 1670 2304 1453 2304 1242 2284 
C 1210 2284 1062 2269 1037 2269 
C 992 2263 966 2257 966 2208 
C 966 2163 973 2157 1101 2157 
L 1414 2157 
z
" transform="scale(0.015625)"/>
       </defs>
       <use xlink:href="#CMR17-33" transform="scale(0.996264)"/>
      </g>
     </g>
    </g>
    <g id="xtick_5">
     <g id="line2d_5">
      <g>
       <use xlink:href="#md98f8e51a8" x="441.680201" y="278.274739" style="stroke: #000000; stroke-width: 3"/>
      </g>
     </g>
     <g id="text_5">
      <!-- $\mathdefault{4}$ -->
      <g transform="translate(437.111154 305.611736) scale(0.2 -0.2)">
       <defs>
        <path id="CMR17-34" d="M 2150 4122 
C 2150 4256 2144 4256 2029 4256 
L 128 1254 
L 128 1088 
L 1779 1088 
L 1779 457 
C 1779 224 1766 160 1318 160 
L 1197 160 
L 1197 0 
C 1402 0 1747 0 1965 0 
C 2182 0 2528 0 2733 0 
L 2733 160 
L 2611 160 
C 2163 160 2150 224 2150 457 
L 2150 1088 
L 2803 1088 
L 2803 1254 
L 2150 1254 
L 2150 4122 
z
M 1798 3703 
L 1798 1254 
L 256 1254 
L 1798 3703 
z
" transform="scale(0.015625)"/>
       </defs>
       <use xlink:href="#CMR17-34" transform="scale(0.996264)"/>
      </g>
     </g>
    </g>
    <g id="text_6">
     <!-- \textit{b} -->
     <g transform="translate(251.20635 327.324366) scale(0.2 -0.2)">
      <defs>
       <path id="CMSSI17-62" d="M 1901 4416 
L 1427 4416 
L 480 -13 
L 966 -13 
L 1024 274 
C 1210 51 1478 -64 1760 -64 
C 2477 -64 3226 790 3226 1789 
C 3226 2232 3034 2756 2522 2756 
C 2323 2756 1920 2712 1478 2419 
L 1901 4416 
z
M 1408 2046 
C 1645 2286 1894 2368 2099 2368 
C 2432 2368 2726 2159 2726 1680 
C 2726 1006 2278 325 1600 325 
C 1210 325 1120 665 1120 697 
C 1120 728 1126 754 1133 778 
L 1408 2046 
z
" transform="scale(0.015625)"/>
      </defs>
      <use xlink:href="#CMSSI17-62" transform="scale(0.996264)"/>
     </g>
    </g>
   </g>
   <g id="matplotlib.axis_2">
    <g id="ytick_1">
     <g id="line2d_6">
      <defs>
       <path id="maaa35e2fb0" d="M 0 0 
L -10 0 
" style="stroke: #000000; stroke-width: 3"/>
      </defs>
      <g>
       <use xlink:href="#maaa35e2fb0" x="67.517279" y="215.927099" style="stroke: #000000; stroke-width: 3"/>
      </g>
     </g>
     <g id="text_7">
      <!-- $\mathdefault{10^{1}}$ -->
      <g transform="translate(28.91263 222.845597) scale(0.2 -0.2)">
       <use xlink:href="#CMR17-31" transform="scale(0.996264)"/>
       <use xlink:href="#CMR17-30" transform="translate(45.690477 0) scale(0.996264)"/>
       <use xlink:href="#CMR17-31" transform="translate(91.380954 36.153639) scale(0.697382)"/>
      </g>
     </g>
    </g>
    <g id="ytick_2">
     <g id="line2d_7">
      <g>
       <use xlink:href="#maaa35e2fb0" x="67.517279" y="100.369538" style="stroke: #000000; stroke-width: 3"/>
      </g>
     </g>
     <g id="text_8">
      <!-- $\mathdefault{10^{2}}$ -->
      <g transform="translate(28.91263 107.288037) scale(0.2 -0.2)">
       <use xlink:href="#CMR17-31" transform="scale(0.996264)"/>
       <use xlink:href="#CMR17-30" transform="translate(45.690477 0) scale(0.996264)"/>
       <use xlink:href="#CMR17-32" transform="translate(91.380954 36.153639) scale(0.697382)"/>
      </g>
     </g>
    </g>
    <g id="ytick_3">
     <g id="line2d_8">
      <defs>
       <path id="m851d011aa8" d="M 0 0 
L -2 0 
" style="stroke: #000000; stroke-width: 0.6"/>
      </defs>
      <g>
       <use xlink:href="#m851d011aa8" x="67.517279" y="276.349691" style="stroke: #000000; stroke-width: 0.6"/>
      </g>
     </g>
    </g>
    <g id="ytick_4">
     <g id="line2d_9">
      <g>
       <use xlink:href="#m851d011aa8" x="67.517279" y="261.912075" style="stroke: #000000; stroke-width: 0.6"/>
      </g>
     </g>
    </g>
    <g id="ytick_5">
     <g id="line2d_10">
      <g>
       <use xlink:href="#m851d011aa8" x="67.517279" y="250.713391" style="stroke: #000000; stroke-width: 0.6"/>
      </g>
     </g>
    </g>
    <g id="ytick_6">
     <g id="line2d_11">
      <g>
       <use xlink:href="#m851d011aa8" x="67.517279" y="241.563399" style="stroke: #000000; stroke-width: 0.6"/>
      </g>
     </g>
    </g>
    <g id="ytick_7">
     <g id="line2d_12">
      <g>
       <use xlink:href="#m851d011aa8" x="67.517279" y="233.827191" style="stroke: #000000; stroke-width: 0.6"/>
      </g>
     </g>
    </g>
    <g id="ytick_8">
     <g id="line2d_13">
      <g>
       <use xlink:href="#m851d011aa8" x="67.517279" y="227.125783" style="stroke: #000000; stroke-width: 0.6"/>
      </g>
     </g>
    </g>
    <g id="ytick_9">
     <g id="line2d_14">
      <g>
       <use xlink:href="#m851d011aa8" x="67.517279" y="221.214723" style="stroke: #000000; stroke-width: 0.6"/>
      </g>
     </g>
    </g>
    <g id="ytick_10">
     <g id="line2d_15">
      <g>
       <use xlink:href="#m851d011aa8" x="67.517279" y="181.140807" style="stroke: #000000; stroke-width: 0.6"/>
      </g>
     </g>
    </g>
    <g id="ytick_11">
     <g id="line2d_16">
      <g>
       <use xlink:href="#m851d011aa8" x="67.517279" y="160.792131" style="stroke: #000000; stroke-width: 0.6"/>
      </g>
     </g>
    </g>
    <g id="ytick_12">
     <g id="line2d_17">
      <g>
       <use xlink:href="#m851d011aa8" x="67.517279" y="146.354515" style="stroke: #000000; stroke-width: 0.6"/>
      </g>
     </g>
    </g>
    <g id="ytick_13">
     <g id="line2d_18">
      <g>
       <use xlink:href="#m851d011aa8" x="67.517279" y="135.15583" style="stroke: #000000; stroke-width: 0.6"/>
      </g>
     </g>
    </g>
    <g id="ytick_14">
     <g id="line2d_19">
      <g>
       <use xlink:href="#m851d011aa8" x="67.517279" y="126.005839" style="stroke: #000000; stroke-width: 0.6"/>
      </g>
     </g>
    </g>
    <g id="ytick_15">
     <g id="line2d_20">
      <g>
       <use xlink:href="#m851d011aa8" x="67.517279" y="118.269631" style="stroke: #000000; stroke-width: 0.6"/>
      </g>
     </g>
    </g>
    <g id="ytick_16">
     <g id="line2d_21">
      <g>
       <use xlink:href="#m851d011aa8" x="67.517279" y="111.568223" style="stroke: #000000; stroke-width: 0.6"/>
      </g>
     </g>
    </g>
    <g id="ytick_17">
     <g id="line2d_22">
      <g>
       <use xlink:href="#m851d011aa8" x="67.517279" y="105.657162" style="stroke: #000000; stroke-width: 0.6"/>
      </g>
     </g>
    </g>
    <g id="ytick_18">
     <g id="line2d_23">
      <g>
       <use xlink:href="#m851d011aa8" x="67.517279" y="65.583246" style="stroke: #000000; stroke-width: 0.6"/>
      </g>
     </g>
    </g>
    <g id="ytick_19">
     <g id="line2d_24">
      <g>
       <use xlink:href="#m851d011aa8" x="67.517279" y="45.23457" style="stroke: #000000; stroke-width: 0.6"/>
      </g>
     </g>
    </g>
    <g id="ytick_20">
     <g id="line2d_25">
      <g>
       <use xlink:href="#m851d011aa8" x="67.517279" y="30.796954" style="stroke: #000000; stroke-width: 0.6"/>
      </g>
     </g>
    </g>
    <g id="ytick_21">
     <g id="line2d_26">
      <g>
       <use xlink:href="#m851d011aa8" x="67.517279" y="19.59827" style="stroke: #000000; stroke-width: 0.6"/>
      </g>
     </g>
    </g>
    <g id="ytick_22">
     <g id="line2d_27">
      <g>
       <use xlink:href="#m851d011aa8" x="67.517279" y="10.448278" style="stroke: #000000; stroke-width: 0.6"/>
      </g>
     </g>
    </g>
    <g id="text_9">
     <!-- \textit{time} -->
     <g transform="translate(21.036997 159.925402) rotate(-90) scale(0.2 -0.2)">
      <defs>
       <path id="CMSSI17-74" d="M 1574 2368 
L 2406 2368 
L 2483 2737 
L 1651 2737 
L 1824 3520 
L 1370 3520 
L 1197 2737 
L 691 2737 
L 614 2368 
L 1107 2368 
C 1062 2150 813 992 794 889 
C 736 608 723 551 723 409 
C 723 6 915 -64 1101 -64 
C 1549 -64 1920 114 2042 172 
L 2022 548 
C 1811 395 1600 337 1440 337 
C 1293 337 1222 427 1222 620 
C 1222 690 1229 728 1242 779 
L 1574 2368 
z
" transform="scale(0.015625)"/>
       <path id="CMSSI17-69" d="M 1869 4183 
L 1331 4183 
L 1222 3648 
L 1760 3648 
L 1869 4183 
z
M 474 0 
L 947 0 
L 1530 2732 
L 1056 2732 
L 474 0 
z
" transform="scale(0.015625)"/>
       <path id="CMSSI17-6d" d="M 4691 1904 
C 4704 1955 4723 2108 4723 2221 
C 4723 2387 4723 2820 4058 2820 
C 3558 2820 3226 2508 3059 2343 
C 3008 2687 2765 2820 2394 2820 
C 1914 2820 1562 2516 1446 2394 
L 1530 2788 
L 1062 2788 
L 474 32 
L 960 32 
L 1254 1407 
C 1312 1687 1478 2432 2067 2432 
C 2362 2432 2554 2330 2554 2049 
C 2554 1960 2547 1935 2541 1903 
L 2138 32 
L 2624 32 
L 2918 1407 
C 2976 1687 3142 2432 3731 2432 
C 4026 2432 4218 2330 4218 2049 
C 4218 1960 4211 1935 4205 1903 
L 3802 32 
L 4288 32 
L 4691 1904 
z
" transform="scale(0.015625)"/>
       <path id="CMSSI17-65" d="M 2803 1377 
C 2842 1545 2861 1719 2861 1893 
C 2861 2655 2374 2816 2022 2816 
C 1229 2816 454 1945 454 1050 
C 454 352 922 -64 1498 -64 
C 1760 -64 2118 0 2528 248 
L 2573 655 
C 2144 356 1747 325 1594 325 
C 1165 325 915 660 915 1104 
C 915 1377 934 1377 1062 1377 
L 2803 1377 
z
M 1069 1728 
C 1274 2159 1632 2427 1933 2427 
C 2458 2427 2458 1884 2458 1728 
L 1069 1728 
z
" transform="scale(0.015625)"/>
      </defs>
      <use xlink:href="#CMSSI17-74" transform="scale(0.996264)"/>
      <use xlink:href="#CMSSI17-69" transform="translate(33.831567 0) scale(0.996264)"/>
      <use xlink:href="#CMSSI17-6d" transform="translate(56.01229 0) scale(0.996264)"/>
      <use xlink:href="#CMSSI17-65" transform="translate(130.241544 0) scale(0.996264)"/>
     </g>
    </g>
   </g>
   <g id="line2d_28">
    <defs>
     <path id="m79c3aef9cc" d="M -5 5 
L 5 -5 
M -5 -5 
L 5 5 
" style="stroke: #800080"/>
    </defs>
    <g clip-path="url(#pd9d81d4c4d)">
     <use xlink:href="#m79c3aef9cc" x="364.825724" y="20.668853" style="fill: #800080; stroke: #800080"/>
     <use xlink:href="#m79c3aef9cc" x="368.302027" y="57.931725" style="fill: #800080; stroke: #800080"/>
     <use xlink:href="#m79c3aef9cc" x="371.77833" y="55.828842" style="fill: #800080; stroke: #800080"/>
     <use xlink:href="#m79c3aef9cc" x="375.254632" y="85.960421" style="fill: #800080; stroke: #800080"/>
     <use xlink:href="#m79c3aef9cc" x="378.730935" y="88.391708" style="fill: #800080; stroke: #800080"/>
     <use xlink:href="#m79c3aef9cc" x="382.207238" y="100.489415" style="fill: #800080; stroke: #800080"/>
     <use xlink:href="#m79c3aef9cc" x="385.683541" y="122.388545" style="fill: #800080; stroke: #800080"/>
     <use xlink:href="#m79c3aef9cc" x="389.159843" y="127.100824" style="fill: #800080; stroke: #800080"/>
     <use xlink:href="#m79c3aef9cc" x="392.636146" y="149.103033" style="fill: #800080; stroke: #800080"/>
     <use xlink:href="#m79c3aef9cc" x="396.112449" y="149.423536" style="fill: #800080; stroke: #800080"/>
     <use xlink:href="#m79c3aef9cc" x="399.588752" y="163.972497" style="fill: #800080; stroke: #800080"/>
     <use xlink:href="#m79c3aef9cc" x="403.065054" y="174.623082" style="fill: #800080; stroke: #800080"/>
     <use xlink:href="#m79c3aef9cc" x="406.541357" y="194.51248" style="fill: #800080; stroke: #800080"/>
     <use xlink:href="#m79c3aef9cc" x="410.01766" y="192.09891" style="fill: #800080; stroke: #800080"/>
     <use xlink:href="#m79c3aef9cc" x="413.493963" y="196.32302" style="fill: #800080; stroke: #800080"/>
     <use xlink:href="#m79c3aef9cc" x="416.970265" y="208.840269" style="fill: #800080; stroke: #800080"/>
     <use xlink:href="#m79c3aef9cc" x="420.446568" y="204.352388" style="fill: #800080; stroke: #800080"/>
     <use xlink:href="#m79c3aef9cc" x="423.922871" y="214.800496" style="fill: #800080; stroke: #800080"/>
     <use xlink:href="#m79c3aef9cc" x="427.399174" y="217.626171" style="fill: #800080; stroke: #800080"/>
    </g>
   </g>
   <g id="line2d_29">
    <path d="M 364.825724 44.736717 
L 368.302027 60.473088 
L 371.77833 75.403195 
L 375.254632 89.513651 
L 378.730935 102.798899 
L 382.207238 115.262307 
L 385.683541 126.916674 
L 389.159843 137.784097 
L 392.636146 147.89517 
L 396.112449 157.28765 
L 399.588752 166.004752 
L 403.065054 174.09329 
L 406.541357 181.601848 
L 410.01766 188.579155 
L 413.493963 195.07274 
L 416.970265 201.127923 
L 420.446568 206.787124 
L 423.922871 212.089458 
L 427.399174 217.070565 
" clip-path="url(#pd9d81d4c4d)" style="fill: none; stroke: #800080; stroke-width: 5; stroke-linecap: square"/>
   </g>
   <g id="line2d_30">
    <defs>
     <path id="mb95abc693b" d="M -5 5 
L 5 -5 
M -5 -5 
L 5 5 
" style="stroke: #0000ff"/>
    </defs>
    <g clip-path="url(#pd9d81d4c4d)">
     <use xlink:href="#mb95abc693b" x="240.281095" y="19.521579" style="fill: #0000ff; stroke: #0000ff"/>
     <use xlink:href="#mb95abc693b" x="249.4356" y="66.115631" style="fill: #0000ff; stroke: #0000ff"/>
     <use xlink:href="#mb95abc693b" x="258.590104" y="93.319006" style="fill: #0000ff; stroke: #0000ff"/>
     <use xlink:href="#mb95abc693b" x="267.744609" y="144.106142" style="fill: #0000ff; stroke: #0000ff"/>
     <use xlink:href="#mb95abc693b" x="276.899114" y="166.27056" style="fill: #0000ff; stroke: #0000ff"/>
     <use xlink:href="#mb95abc693b" x="286.053619" y="180.050286" style="fill: #0000ff; stroke: #0000ff"/>
     <use xlink:href="#mb95abc693b" x="295.208124" y="204.335978" style="fill: #0000ff; stroke: #0000ff"/>
     <use xlink:href="#mb95abc693b" x="304.362629" y="226.167418" style="fill: #0000ff; stroke: #0000ff"/>
     <use xlink:href="#mb95abc693b" x="313.517134" y="239.888929" style="fill: #0000ff; stroke: #0000ff"/>
    </g>
   </g>
   <g id="line2d_31">
    <path d="M 240.281095 31.682257 
L 249.4356 67.902249 
L 258.590104 100.260079 
L 267.744609 128.812982 
L 276.899114 153.752472 
L 286.053619 175.397223 
L 295.208124 194.153251 
L 304.362629 210.459228 
L 313.517134 224.737702 
" clip-path="url(#pd9d81d4c4d)" style="fill: none; stroke: #0000ff; stroke-width: 5; stroke-linecap: square"/>
   </g>
   <g id="line2d_32">
    <defs>
     <path id="m2d05a79574" d="M -5 5 
L 5 -5 
M -5 -5 
L 5 5 
" style="stroke: #008000"/>
    </defs>
    <g clip-path="url(#pd9d81d4c4d)">
     <use xlink:href="#m2d05a79574" x="178.608641" y="40.469142" style="fill: #008000; stroke: #008000"/>
     <use xlink:href="#m2d05a79574" x="197.399467" y="113.02779" style="fill: #008000; stroke: #008000"/>
     <use xlink:href="#m2d05a79574" x="216.190293" y="168.510679" style="fill: #008000; stroke: #008000"/>
     <use xlink:href="#m2d05a79574" x="234.981118" y="212.493893" style="fill: #008000; stroke: #008000"/>
     <use xlink:href="#m2d05a79574" x="253.771944" y="240.849331" style="fill: #008000; stroke: #008000"/>
    </g>
   </g>
   <g id="line2d_33">
    <path d="M 178.608641 43.325764 
L 197.399467 107.664027 
L 216.190293 158.563637 
L 234.981118 198.236985 
L 253.771944 229.517892 
" clip-path="url(#pd9d81d4c4d)" style="fill: none; stroke: #008000; stroke-width: 5; stroke-linecap: square"/>
   </g>
   <g id="line2d_34">
    <defs>
     <path id="md5ca6a8e38" d="M -5 5 
L 5 -5 
M -5 -5 
L 5 5 
" style="stroke: #ffa500"/>
    </defs>
    <g clip-path="url(#pd9d81d4c4d)">
     <use xlink:href="#md5ca6a8e38" x="84.654513" y="32.141986" style="fill: #ffa500; stroke: #ffa500"/>
     <use xlink:href="#md5ca6a8e38" x="103.445338" y="140.055206" style="fill: #ffa500; stroke: #ffa500"/>
     <use xlink:href="#md5ca6a8e38" x="122.236164" y="184.437064" style="fill: #ffa500; stroke: #ffa500"/>
     <use xlink:href="#md5ca6a8e38" x="141.02699" y="227.237516" style="fill: #ffa500; stroke: #ffa500"/>
     <use xlink:href="#md5ca6a8e38" x="159.817815" y="258.286365" style="fill: #ffa500; stroke: #ffa500"/>
    </g>
   </g>
   <g id="line2d_35">
    <path d="M 84.654513 68.873371 
L 103.445338 127.550686 
L 122.236164 173.93531 
L 141.02699 211.332386 
L 159.817815 242.793672 
" clip-path="url(#pd9d81d4c4d)" style="fill: none; stroke: #ffa500; stroke-width: 5; stroke-linecap: square"/>
   </g>
   <g id="line2d_36">
    <defs>
     <path id="m4783ca2c16" d="M -5 5 
L 5 -5 
M -5 -5 
L 5 5 
" style="stroke: #ff0000"/>
    </defs>
    <g clip-path="url(#pd9d81d4c4d)">
     <use xlink:href="#m4783ca2c16" x="84.654513" y="102.757378" style="fill: #ff0000; stroke: #ff0000"/>
     <use xlink:href="#m4783ca2c16" x="93.809017" y="163.42147" style="fill: #ff0000; stroke: #ff0000"/>
     <use xlink:href="#m4783ca2c16" x="102.963522" y="187.894916" style="fill: #ff0000; stroke: #ff0000"/>
     <use xlink:href="#m4783ca2c16" x="112.118027" y="208.996548" style="fill: #ff0000; stroke: #ff0000"/>
     <use xlink:href="#m4783ca2c16" x="121.272532" y="238.294697" style="fill: #ff0000; stroke: #ff0000"/>
     <use xlink:href="#m4783ca2c16" x="130.427037" y="245.658121" style="fill: #ff0000; stroke: #ff0000"/>
     <use xlink:href="#m4783ca2c16" x="139.581542" y="256.740454" style="fill: #ff0000; stroke: #ff0000"/>
     <use xlink:href="#m4783ca2c16" x="148.736046" y="265.95316" style="fill: #ff0000; stroke: #ff0000"/>
    </g>
   </g>
   <g id="line2d_37">
    <path d="M 84.654513 131.71144 
L 93.809017 155.830893 
L 102.963522 177.313526 
L 112.118027 196.620741 
L 121.272532 214.176735 
L 130.427037 230.3694 
L 139.581542 245.558727 
L 148.736046 260.09341 
" clip-path="url(#pd9d81d4c4d)" style="fill: none; stroke: #ff0000; stroke-width: 5; stroke-linecap: square"/>
   </g>
   <g id="patch_3">
    <path d="M 67.517279 278.274739 
L 67.517279 7.2 
" style="fill: none; stroke: #000000; stroke-width: 4; stroke-linejoin: miter; stroke-linecap: square"/>
   </g>
   <g id="patch_4">
    <path d="M 444.536407 278.274739 
L 444.536407 7.2 
" style="fill: none; stroke: #000000; stroke-width: 4; stroke-linejoin: miter; stroke-linecap: square"/>
   </g>
   <g id="patch_5">
    <path d="M 67.517279 278.274739 
L 444.536407 278.274739 
" style="fill: none; stroke: #000000; stroke-width: 4; stroke-linejoin: miter; stroke-linecap: square"/>
   </g>
   <g id="patch_6">
    <path d="M 67.517279 7.2 
L 444.536407 7.2 
" style="fill: none; stroke: #000000; stroke-width: 4; stroke-linejoin: miter; stroke-linecap: square"/>
   </g>
   <g id="legend_1">
    <g id="patch_7">
     <path d="M 195.400192 162.578168 
L 316.653494 162.578168 
Q 320.653494 162.578168 320.653494 158.578168 
L 320.653494 21.2 
Q 320.653494 17.2 316.653494 17.2 
L 195.400192 17.2 
Q 191.400192 17.2 191.400192 21.2 
L 191.400192 158.578168 
Q 191.400192 162.578168 195.400192 162.578168 
z
" style="fill: #ffffff; opacity: 0.9; stroke: #000000; stroke-linejoin: miter"/>
    </g>
    <g id="line2d_38">
     <g>
      <use xlink:href="#m79c3aef9cc" x="219.400192" y="32.2" style="fill: #800080; stroke: #800080"/>
     </g>
    </g>
    <g id="text_10">
     <!-- g=0.1 -->
     <g transform="translate(255.400192 39.2) scale(0.2 -0.2)">
      <defs>
       <path id="CMSS17-67" d="M 2848 2808 
C 2483 2808 2170 2738 1914 2617 
C 1702 2777 1485 2808 1338 2808 
C 781 2808 358 2349 358 1814 
C 358 1468 550 1207 563 1195 
C 448 1035 384 863 384 672 
C 384 448 474 289 544 200 
C 211 -3 166 -314 166 -435 
C 166 -898 749 -1280 1498 -1280 
C 2253 -1280 2835 -898 2835 -428 
C 2835 448 1856 448 1587 448 
L 1069 448 
C 973 448 717 448 717 791 
C 717 921 774 1004 781 1010 
C 877 940 1075 832 1338 832 
C 1869 832 2310 1278 2310 1827 
C 2310 2132 2170 2355 2112 2432 
L 2131 2432 
C 2150 2432 2419 2432 2515 2432 
C 2720 2432 2739 2429 2918 2419 
L 2848 2808 
z
M 1338 1182 
C 1120 1182 813 1315 813 1823 
C 813 2375 1165 2464 1331 2464 
C 1549 2464 1856 2331 1856 1823 
C 1856 1271 1504 1182 1338 1182 
z
M 1581 -10 
C 1734 -10 2381 -10 2381 -442 
C 2381 -714 1984 -929 1504 -929 
C 1018 -929 621 -720 621 -435 
C 621 -403 621 -10 1062 -10 
L 1581 -10 
z
" transform="scale(0.015625)"/>
       <path id="CMSS17-3d" d="M 4147 2017 
C 4243 2017 4339 2017 4339 2125 
C 4339 2240 4230 2240 4122 2240 
L 550 2240 
C 442 2240 333 2240 333 2125 
C 333 2017 429 2017 525 2017 
L 4147 2017 
z
M 4122 896 
C 4230 896 4339 896 4339 1011 
C 4339 1119 4243 1119 4147 1119 
L 525 1119 
C 429 1119 333 1119 333 1011 
C 333 896 442 896 550 896 
L 4122 896 
z
" transform="scale(0.015625)"/>
       <path id="CMSS17-30" d="M 2758 2044 
C 2758 2405 2752 3077 2490 3596 
C 2227 4096 1805 4229 1504 4229 
C 1069 4229 698 3975 506 3570 
C 301 3146 243 2709 243 2044 
C 243 1589 262 1031 493 543 
C 755 5 1197 -128 1498 -128 
C 1894 -128 2278 81 2496 518 
C 2720 974 2758 1474 2758 2044 
z
M 1498 261 
C 1011 261 864 811 819 995 
C 742 1310 730 1614 730 2114 
C 730 2506 730 2948 851 3297 
C 998 3701 1254 3840 1498 3840 
C 1971 3840 2125 3372 2176 3208 
C 2272 2873 2272 2481 2272 2114 
C 2272 1526 2272 261 1498 261 
z
" transform="scale(0.015625)"/>
       <path id="CMSS17-2e" d="M 1088 510 
L 576 510 
L 576 0 
L 1088 0 
L 1088 510 
z
" transform="scale(0.015625)"/>
       <path id="CMSS17-31" d="M 1818 4288 
L 1696 4288 
C 1350 3940 947 3890 538 3890 
L 538 3520 
C 723 3520 1024 3520 1325 3667 
L 1325 369 
L 570 369 
L 570 0 
L 2573 0 
L 2573 369 
L 1818 369 
L 1818 4288 
z
" transform="scale(0.015625)"/>
      </defs>
      <use xlink:href="#CMSS17-67" transform="scale(0.996264)"/>
      <use xlink:href="#CMSS17-3d" transform="translate(46.843624 0) scale(0.996264)"/>
      <use xlink:href="#CMSS17-30" transform="translate(119.711558 0) scale(0.996264)"/>
      <use xlink:href="#CMSS17-2e" transform="translate(166.555182 0) scale(0.996264)"/>
      <use xlink:href="#CMSS17-31" transform="translate(192.579387 0) scale(0.996264)"/>
     </g>
    </g>
    <g id="line2d_39">
     <g>
      <use xlink:href="#mb95abc693b" x="219.400192" y="60.075634" style="fill: #0000ff; stroke: #0000ff"/>
     </g>
    </g>
    <g id="text_11">
     <!-- g=0.15 -->
     <g transform="translate(255.400192 67.075634) scale(0.2 -0.2)">
      <defs>
       <path id="CMSS17-35" d="M 934 3752 
L 2502 3752 
L 2502 4160 
L 467 4160 
L 467 1781 
L 896 1781 
C 1011 2046 1248 2240 1555 2240 
C 1843 2240 2163 1989 2163 1266 
C 2163 493 1709 267 1376 267 
C 966 267 589 512 422 851 
L 218 499 
C 512 49 992 -128 1376 -128 
C 2118 -128 2701 497 2701 1253 
C 2701 2030 2182 2629 1562 2629 
C 1338 2629 1120 2553 934 2399 
L 934 3752 
z
" transform="scale(0.015625)"/>
      </defs>
      <use xlink:href="#CMSS17-67" transform="scale(0.996264)"/>
      <use xlink:href="#CMSS17-3d" transform="translate(46.843624 0) scale(0.996264)"/>
      <use xlink:href="#CMSS17-30" transform="translate(119.711558 0) scale(0.996264)"/>
      <use xlink:href="#CMSS17-2e" transform="translate(166.555182 0) scale(0.996264)"/>
      <use xlink:href="#CMSS17-31" transform="translate(192.579387 0) scale(0.996264)"/>
      <use xlink:href="#CMSS17-35" transform="translate(239.42301 0) scale(0.996264)"/>
     </g>
    </g>
    <g id="line2d_40">
     <g>
      <use xlink:href="#m2d05a79574" x="219.400192" y="87.951267" style="fill: #008000; stroke: #008000"/>
     </g>
    </g>
    <g id="text_12">
     <!-- g=0.2 -->
     <g transform="translate(255.400192 94.951267) scale(0.2 -0.2)">
      <defs>
       <path id="CMSS17-32" d="M 1651 1357 
C 1830 1541 2099 1764 2285 1987 
C 2464 2204 2701 2511 2701 2957 
C 2701 3657 2227 4288 1421 4288 
C 787 4288 422 3893 250 3274 
L 499 2929 
C 640 3510 838 3880 1338 3880 
C 1888 3880 2195 3433 2195 2942 
C 2195 2355 1747 1901 1408 1563 
C 1030 1187 659 804 301 408 
L 301 0 
L 2701 0 
L 2701 433 
L 1613 433 
C 1536 433 1459 433 1382 433 
L 742 433 
L 742 439 
L 1651 1357 
z
" transform="scale(0.015625)"/>
      </defs>
      <use xlink:href="#CMSS17-67" transform="scale(0.996264)"/>
      <use xlink:href="#CMSS17-3d" transform="translate(46.843624 0) scale(0.996264)"/>
      <use xlink:href="#CMSS17-30" transform="translate(119.711558 0) scale(0.996264)"/>
      <use xlink:href="#CMSS17-2e" transform="translate(166.555182 0) scale(0.996264)"/>
      <use xlink:href="#CMSS17-32" transform="translate(192.579387 0) scale(0.996264)"/>
     </g>
    </g>
    <g id="line2d_41">
     <g>
      <use xlink:href="#md5ca6a8e38" x="219.400192" y="115.826901" style="fill: #ffa500; stroke: #ffa500"/>
     </g>
    </g>
    <g id="text_13">
     <!-- g=0.4 -->
     <g transform="translate(255.400192 122.826901) scale(0.2 -0.2)">
      <defs>
       <path id="CMSS17-34" d="M 2253 1088 
L 2835 1088 
L 2835 1477 
L 2253 1477 
L 2253 4192 
L 1690 4192 
L 166 1477 
L 166 1088 
L 1747 1088 
L 1747 0 
L 2253 0 
L 2253 1088 
z
M 659 1477 
C 1030 2127 1766 3439 1766 3885 
L 1766 1477 
L 659 1477 
z
" transform="scale(0.015625)"/>
      </defs>
      <use xlink:href="#CMSS17-67" transform="scale(0.996264)"/>
      <use xlink:href="#CMSS17-3d" transform="translate(46.843624 0) scale(0.996264)"/>
      <use xlink:href="#CMSS17-30" transform="translate(119.711558 0) scale(0.996264)"/>
      <use xlink:href="#CMSS17-2e" transform="translate(166.555182 0) scale(0.996264)"/>
      <use xlink:href="#CMSS17-34" transform="translate(192.579387 0) scale(0.996264)"/>
     </g>
    </g>
    <g id="line2d_42">
     <g>
      <use xlink:href="#m4783ca2c16" x="219.400192" y="143.702534" style="fill: #ff0000; stroke: #ff0000"/>
     </g>
    </g>
    <g id="text_14">
     <!-- g=0.5 -->
     <g transform="translate(255.400192 150.702534) scale(0.2 -0.2)">
      <use xlink:href="#CMSS17-67" transform="scale(0.996264)"/>
      <use xlink:href="#CMSS17-3d" transform="translate(46.843624 0) scale(0.996264)"/>
      <use xlink:href="#CMSS17-30" transform="translate(119.711558 0) scale(0.996264)"/>
      <use xlink:href="#CMSS17-2e" transform="translate(166.555182 0) scale(0.996264)"/>
      <use xlink:href="#CMSS17-35" transform="translate(192.579387 0) scale(0.996264)"/>
     </g>
    </g>
   </g>
  </g>
 </g>
 <defs>
  <clipPath id="pd9d81d4c4d">
   <rect x="67.517279" y="7.2" width="377.019127" height="271.074739"/>
  </clipPath>
 </defs>
</svg>
